<svg xmlns="http://www.w3.org/2000/svg" xmlns:xlink="http://www.w3.org/1999/xlink" viewBox="0 0 164.76 162.94"><defs><style>.cls-1{fill:url(#linear-gradient);}.cls-2{fill:#0ee8e7;}.cls-3{fill:url(#linear-gradient-2);}</style><linearGradient id="linear-gradient" x1="82.63" y1="-308.13" x2="164.76" y2="-308.13" gradientTransform="matrix(1, 0, 0, -1, 0, -201.78)" gradientUnits="userSpaceOnUse"><stop offset="0" stop-color="#27a7df"/><stop offset="0.19" stop-color="#26aad0"/><stop offset="0.56" stop-color="#24b0a9"/><stop offset="0.83" stop-color="#22b689"/></linearGradient><linearGradient id="linear-gradient-2" x1="0" y1="-279.57" x2="120.78" y2="-279.57" xlink:href="#linear-gradient"/></defs><g id="Layer_2" data-name="Layer 2"><g id="Layer_1-2" data-name="Layer 1"><path class="cls-1" d="M164,93.8c-2.27,15.72-10.7,37.91-37.44,56.48,4.61-5.58,11.64-16.17,11.12-28.33-.41-9.56-5.48-18.21-15.05-25.72l-.23-.17-.28,0c-.16,0-16.27,1.68-27.8-8-6.88-5.78-10.8-14.42-11.66-25.68H162A75.7,75.7,0,0,1,164,93.8Z"/><path class="cls-2" d="M121.79,153.4h0c-30.14,18.53-68.62,4.57-71.54,3.47C33.39,134.81,32,111.75,33.76,96.27a97.3,97.3,0,0,1,5-21.35,52.46,52.46,0,0,0,6,30.39A37,37,0,0,0,71.35,124c22.7,3.52,35.49-4,42.22-10.92a37.82,37.82,0,0,0,9-15c8.7,7.09,13.31,15.16,13.7,24C137,138.46,122.8,152.44,121.79,153.4Z"/><path class="cls-3" d="M118.81,29c-6.55,13.79-16.71,12.82-22.19,11a42.05,42.05,0,0,0-14.14-2.23C70.74,38,49.7,42.15,40.58,66.88c0,0,0,0,0,.05a92.83,92.83,0,0,0-8.17,29.12,83.89,83.89,0,0,0,15.19,59.53c-7.91-4.08-32.39-18.48-42.77-45C-2.84,91-1.35,69,9.22,45.12A90.17,90.17,0,0,1,30.23,19C43.37,7.73,65.82-4.42,98.11,1.6A37.72,37.72,0,0,1,110,5.85C117.11,9.92,124.38,17.22,118.81,29Z"/></g></g></svg>