<?xml version="1.0" encoding="UTF-8" standalone="no"?>
<!-- Created with Inkscape (http://www.inkscape.org/) -->

<svg
   width="9.5465994mm"
   height="10.43374mm"
   viewBox="0 0 9.5465994 10.43374"
   version="1.1"
   id="svg433"
   inkscape:version="1.2.2 (b0a8486541, 2022-12-01)"
   sodipodi:docname="bitazza.svg"
   xmlns:inkscape="http://www.inkscape.org/namespaces/inkscape"
   xmlns:sodipodi="http://sodipodi.sourceforge.net/DTD/sodipodi-0.dtd"
   xmlns="http://www.w3.org/2000/svg"
   xmlns:svg="http://www.w3.org/2000/svg">
  <sodipodi:namedview
     id="namedview435"
     pagecolor="#ffffff"
     bordercolor="#000000"
     borderopacity="0.25"
     inkscape:showpageshadow="2"
     inkscape:pageopacity="0.0"
     inkscape:pagecheckerboard="0"
     inkscape:deskcolor="#d1d1d1"
     inkscape:document-units="mm"
     showgrid="false"
     inkscape:zoom="0.79107744"
     inkscape:cx="-159.27644"
     inkscape:cy="7.5845925"
     inkscape:window-width="1920"
     inkscape:window-height="1008"
     inkscape:window-x="1680"
     inkscape:window-y="0"
     inkscape:window-maximized="1"
     inkscape:current-layer="layer1" />
  <defs
     id="defs430" />
  <g
     inkscape:label="Layer 1"
     inkscape:groupmode="layer"
     id="layer1"
     transform="translate(-147.07145,-146.62723)">
    <path
       data-name="Path 55"
       d="m 155.84447,152.01815 -0.26934,-0.1905 0.26934,-0.1905 a 1.8285354,1.8285354 0 0 0 -0.14763,-3.07816 l -0.0236,-0.0145 a 1.8317104,1.8317104 0 0 0 -1.65629,-0.0879 l -0.2929,0.13044 -0.0339,-0.31908 a 1.8364729,1.8364729 0 0 0 -0.90647,-1.39198 l -0.008,-0.004 a 1.8155708,1.8155708 0 0 0 -0.91281,-0.24474 1.8370021,1.8370021 0 0 0 -0.94827,0.26458 l -0.0463,0.0265 a 1.8430875,1.8430875 0 0 0 -0.86757,1.35255 l -0.0381,0.31538 -0.28919,-0.12779 a 1.8288,1.8288 0 0 0 -1.65894,0.086 l -0.0291,0.0164 a 1.8338271,1.8338271 0 0 0 -0.91387,1.58407 v 0.0325 a 1.8340916,1.8340916 0 0 0 0.77232,1.49225 l 0.26829,0.1905 -0.26829,0.1905 a 1.8282708,1.8282708 0 0 0 0.1434,3.07684 l 0.0265,0.0164 a 1.8388541,1.8388541 0 0 0 1.65814,0.087 l 0.2929,-0.12965 0.0336,0.31909 a 1.8370021,1.8370021 0 0 0 0.90197,1.38986 l 0.0119,0.006 a 1.8282708,1.8282708 0 0 0 1.86293,-0.0209 l 0.0453,-0.0265 a 1.8388541,1.8388541 0 0 0 0.86757,-1.35255 l 0.037,-0.31539 0.29104,0.12965 a 1.83515,1.83515 0 0 0 1.66158,-0.0878 l 0.0265,-0.0153 a 1.8322396,1.8322396 0 0 0 0.91387,-1.58273 v -0.0336 a 1.8356791,1.8356791 0 0 0 -0.77338,-1.49357 z m -0.25929,1.52585 a 0.80062916,0.80062916 0 0 1 -0.39899,0.69083 l -0.0265,0.0164 a 0.80512707,0.80512707 0 0 1 -0.79877,0 l -0.74243,-0.42968 -0.94826,0.54848 v 0.83582 a 0.80195207,0.80195207 0 0 1 -0.38418,0.6821 l -0.0463,0.028 a 0.79957082,0.79957082 0 0 1 -0.81227,0.009 l -0.01,-0.006 a 0.80115832,0.80115832 0 0 1 -0.39979,-0.69215 v -0.85672 l -0.94827,-0.54848 -0.74242,0.42968 a 0.80168749,0.80168749 0 0 1 -0.79692,0 l -0.0281,-0.0172 a 0.79692499,0.79692499 0 0 1 -0.008,-1.37583 l 0.77364,-0.45905 -0.006,-1.09247 -0.75909,-0.43894 a 0.79771874,0.79771874 0 0 1 -0.39873,-0.68977 v -0.0325 a 0.80062916,0.80062916 0 0 1 0.39979,-0.69083 l 0.0265,-0.0172 a 0.80301041,0.80301041 0 0 1 0.79772,0 l 0.74242,0.42968 0.94826,-0.54768 v -0.83582 a 0.80592082,0.80592082 0 0 1 0.38444,-0.68183 l 0.0463,-0.0281 a 0.79586666,0.79586666 0 0 1 0.81094,-0.008 l 0.0101,0.006 a 0.79904166,0.79904166 0 0 1 0.39978,0.69189 v 0.85751 l 0.94827,0.54769 0.74242,-0.42968 a 0.80486249,0.80486249 0 0 1 0.79878,0 l 0.0265,0.0172 a 0.79798332,0.79798332 0 0 1 0.008,1.37583 l -0.77523,0.45773 0.006,1.09246 0.76068,0.43868 a 0.79798332,0.79798332 0 0 1 0.39899,0.68977 z"
       style="fill:#10f48b;stroke-width:0.264583"
       id="path20" />
    <path
       data-name="Path 56"
       d="m 153.3865,150.58173 -1.54305,0.88979 -1.54305,-0.88979 1.54305,-0.89112 z"
       style="fill:#10f48b;stroke-width:0.264583"
       id="path22" />
    <path
       data-name="Path 57"
       d="m 151.52198,152.0282 v 1.78224 l -1.54305,-0.89112 v -1.78091 z"
       style="fill:#10f48b;stroke-width:0.264583"
       id="path24" />
    <path
       data-name="Path 58"
       d="m 153.70823,151.13841 v 1.78091 l -1.54305,0.89112 v -1.78224 z"
       style="fill:#10f48b;stroke-width:0.264583"
       id="path26" />
  </g>
</svg>
