<?xml version="1.0" encoding="UTF-8" standalone="no"?>
<!-- Created with Inkscape (http://www.inkscape.org/) -->

<svg
   width="29.081785mm"
   height="33.345509mm"
   viewBox="0 0 29.081785 33.345509"
   version="1.1"
   id="svg476"
   inkscape:version="1.2.2 (b0a8486541, 2022-12-01)"
   sodipodi:docname="bitmart.svg"
   xmlns:inkscape="http://www.inkscape.org/namespaces/inkscape"
   xmlns:sodipodi="http://sodipodi.sourceforge.net/DTD/sodipodi-0.dtd"
   xmlns="http://www.w3.org/2000/svg"
   xmlns:svg="http://www.w3.org/2000/svg">
  <sodipodi:namedview
     id="namedview478"
     pagecolor="#ffffff"
     bordercolor="#000000"
     borderopacity="0.25"
     inkscape:showpageshadow="2"
     inkscape:pageopacity="0.0"
     inkscape:pagecheckerboard="0"
     inkscape:deskcolor="#d1d1d1"
     inkscape:document-units="mm"
     showgrid="false"
     inkscape:zoom="0.76969697"
     inkscape:cx="327.40157"
     inkscape:cy="105.23622"
     inkscape:window-width="1920"
     inkscape:window-height="1008"
     inkscape:window-x="1600"
     inkscape:window-y="0"
     inkscape:window-maximized="1"
     inkscape:current-layer="layer1" />
  <defs
     id="defs473" />
  <g
     inkscape:label="Layer 1"
     inkscape:groupmode="layer"
     id="layer1"
     transform="translate(-18.115357,-120.82727)">
    <path
       d="M 107.59375,224.125"
       id="path466"
       style="stroke-width:0.0651282" />
    <path
       d="M 36.600827,144.7773 H 26.035989 v 0.89662 h 10.564838 z"
       id="path16"
       style="stroke-width:0.0651282" />
    <path
       d="M 28.680195,150.35468 H 20.75559 v 0.89662 h 7.924605 z"
       id="path18"
       style="stroke-width:0.0651282" />
    <path
       d="m 23.388007,144.78127 h -5.27265 v 0.89662 h 5.27265 z"
       id="path20"
       style="stroke-width:0.0651282" />
    <path
       d="m 36.600957,142.18637 h -7.924605 v 0.89662 h 7.924605 z"
       id="path22"
       style="stroke-width:0.0651282" />
    <path
       d="m 26.028174,142.18637 h -5.268742 v 0.89662 h 5.268742 z"
       id="path24"
       style="stroke-width:0.0651282" />
    <path
       d="M 36.600957,130.59498 H 23.391979 v 0.89655 h 13.208978 z"
       id="path26"
       style="stroke-width:0.0651282" />
    <path
       d="M 26.028239,127.61256 H 20.75559 v 0.89662 h 5.272649 z"
       id="path28"
       style="stroke-width:0.0651282" />
    <path
       d="m 43.606343,136.233 v -0.0227 c 0.920066,-1.5608 1.402145,-3.32864 1.398433,-5.12703 -0.0037,-1.79838 -0.493346,-3.56433 -1.419795,-5.12142 -0.926384,-1.55702 -2.257279,-2.85072 -3.859758,-3.75177 -1.60235,-0.90105 -3.420143,-1.37779 -5.271608,-1.38281 H 23.391914 v 1.28414 h 11.092963 c 1.420967,0.005 2.821419,0.32883 4.092982,0.94488 1.271563,0.61605 2.37972,1.50843 3.238761,2.6078 0.859041,1.09936 1.445976,2.37613 1.714891,3.73132 0.269044,1.35519 0.213034,2.75239 -0.163733,4.08315 0.275949,-1.15114 0.280898,-2.34787 0.01472,-3.50116 -0.266309,-1.15323 -0.797039,-2.23331 -1.552656,-3.1597 -0.755683,-0.92638 -1.71678,-1.67523 -2.81178,-2.19085 -1.094871,-0.51555 -2.295574,-0.78453 -3.512365,-0.78687 H 26.03599 v 1.28413 h 9.481365 c 1.062437,3.2e-4 2.109959,0.2441 3.057184,0.71152 0.947224,0.46743 1.767644,1.14522 2.394568,1.9784 0.626859,0.83319 1.042573,1.79832 1.213339,2.81686 0.170701,1.01854 0.0917,2.0619 -0.230749,3.04527 0.207368,-0.75868 0.232963,-1.55337 0.07503,-2.32319 -0.157936,-0.76988 -0.495365,-1.4943 -0.986301,-2.11777 -0.490806,-0.62348 -1.122224,-1.12959 -1.845669,-1.47933 -0.723444,-0.34973 -1.519831,-0.53392 -2.327942,-0.53841 H 28.65278 v 1.29553 h 8.174958 c 0.694332,0.001 1.376159,0.17917 1.977618,0.51595 0.601459,0.33677 1.101644,0.82081 1.450666,1.40383 0.348891,0.58303 0.534572,1.24467 0.538284,1.91894 0.0038,0.67427 -0.174348,1.33787 -0.516662,1.92454 -1.181491,-0.42672 -2.431822,-0.64549 -3.692444,-0.64588 H 26.024201 v 1.28414 h 10.560995 c 2.154246,3.2e-4 4.240824,0.7306 5.900291,2.06495 1.659336,1.33435 2.787487,3.1892 3.189914,5.24478 -0.401515,-1.69783 -1.383388,-3.21323 -2.785729,-4.29931 -1.40234,-1.08608 -3.14211,-1.67842 -4.935546,-1.68064 h -14.56625 v 1.27267 H 37.97373 c 1.583918,0.005 3.113193,0.5633 4.308817,1.57253 1.195624,1.00922 1.977683,2.40225 2.203874,3.92488 -0.222999,-1.1796 -0.864317,-2.24601 -1.812453,-3.01433 -0.948137,-0.76818 -2.143305,-1.18969 -3.378136,-1.19126 H 23.395757 v 1.28414 H 39.29199 c 1.050844,0 2.058703,0.40548 2.80175,1.12717 0.743048,0.72169 1.16052,1.70063 1.16052,2.72132 0,1.02075 -0.417407,1.99969 -1.16052,2.72144 -0.743113,0.72176 -1.750972,1.12718 -2.80175,1.12718 H 20.755524 v 1.28413 h 18.540308 c 1.234831,-0.002 2.429934,-0.42307 3.378136,-1.19139 0.948136,-0.76819 1.589454,-1.83473 1.812453,-3.01433 -0.229187,1.52394 -1.015414,2.91683 -2.214685,3.92404 -1.199401,1.00734 -2.731933,1.56171 -4.317545,1.56204 h -6.649395 v 1.28413 h 6.649395 c 1.722446,-0.002 3.397283,-0.54871 4.771879,-1.55696 1.374466,-1.00818 2.373989,-2.42329 2.847731,-4.03169 -0.494974,1.9485 -1.646767,3.6802 -3.272041,4.91939 -1.625275,1.23933 -3.630702,1.91477 -5.697025,1.91913 H 23.40748 v 1.28414 h 13.177781 c 2.148906,0.01 4.250007,-0.6169 6.022471,-1.79715 1.77253,-1.18025 3.132081,-2.85763 3.897272,-4.80822 0.765192,-1.95059 0.899486,-4.08132 0.385103,-6.10798 -0.514447,-2.0266 -1.653214,-3.8526 -3.264226,-5.23403 l -0.0196,0.007 z"
       id="path30"
       sodipodi:nodetypes="ccsccccccssccccsccccscccscsccccscccccccccsccccscccccssssscccccsccccccccccccscccc"
       style="stroke-width:0.0651282" />
  </g>
</svg>
