<svg width="175" height="175" viewBox="0 0 175 175" fill="none" xmlns="http://www.w3.org/2000/svg">
<g clip-path="url(#clip0_897_32)">
<g clip-path="url(#clip1_897_32)">
<path d="M142.719 64.3858C160.614 64.3858 175 49.9999 175 32.1929C175 14.3859 160.526 0 142.719 0C124.825 0 110.439 14.3859 110.439 32.1929C110.439 49.9999 124.825 64.3858 142.719 64.3858Z" fill="#141421"/>
<path d="M32.281 174.21C50.1757 174.21 64.5617 159.824 64.5617 142.017C64.5617 124.21 50.088 109.824 32.281 109.824C14.3863 109.824 0.000396626 124.21 0.000396626 142.017C-0.0873225 159.824 14.3863 174.21 32.281 174.21Z" fill="#141421"/>
<path d="M119.825 9.47358C89.2111 -3.15797 52.6323 2.89465 27.72 27.6314C2.80781 52.4559 -3.24481 88.7717 9.38674 119.298L119.825 9.47358Z" fill="#141421"/>
<path d="M55.0889 164.824C85.7028 177.456 122.282 171.403 147.194 146.666C172.106 121.842 178.159 85.5261 165.527 54.9999L55.0889 164.824Z" fill="#141421"/>
</g>
</g>
<defs>
<clipPath id="clip0_897_32">
<rect width="175" height="175" fill="white"/>
</clipPath>
<clipPath id="clip1_897_32">
<rect width="175" height="175" fill="white"/>
</clipPath>
</defs>
</svg>
