<?xml version="1.0" encoding="UTF-8"?>
<svg version="1.1" xmlns="http://www.w3.org/2000/svg" width="64" height="64">
<path d="M0 0 C21.12 0 42.24 0 64 0 C64 21.12 64 42.24 64 64 C42.88 64 21.76 64 0 64 C0 42.88 0 21.76 0 0 Z " fill="#0A0707" transform="translate(0,0)"/>
<path d="M0 0 C7.1775 -0.04125 14.355 -0.0825 21.75 -0.125 C24.01069336 -0.14320801 26.27138672 -0.16141602 28.60058594 -0.18017578 C30.39517988 -0.18601776 32.18977646 -0.19111402 33.984375 -0.1953125 C35.37873779 -0.2106604 35.37873779 -0.2106604 36.80126953 -0.22631836 C38.1405249 -0.22668091 38.1405249 -0.22668091 39.50683594 -0.22705078 C40.27960876 -0.231492 41.05238159 -0.23593323 41.84857178 -0.24050903 C44.27181653 0.03038648 45.89773202 0.79451907 48 2 C47.67 2.66 47.34 3.32 47 4 C45.906875 4.309375 44.81375 4.61875 43.6875 4.9375 C40.34157308 5.90158064 38.56326882 6.74432344 36 9 C35.34 8.67 34.68 8.34 34 8 C33.67 8.99 33.34 9.98 33 11 C31.97519531 10.98839844 30.95039063 10.97679687 29.89453125 10.96484375 C28.533856 10.95545978 27.17317876 10.94636023 25.8125 10.9375 C25.13896484 10.92912109 24.46542969 10.92074219 23.77148438 10.91210938 C20.04565869 10.89393462 16.6211958 11.10700608 13 12 C11.26664095 17.20007716 11.65596977 22.75196794 11.5949707 28.19628906 C11.57337332 29.64542446 11.53924819 31.09442878 11.49243164 32.54296875 C11.42530888 34.64121181 11.39796391 36.7367715 11.37890625 38.8359375 C11.3538501 40.08938965 11.32879395 41.3428418 11.30297852 42.63427734 C11.74515573 46.2285641 11.74515573 46.2285641 14.70141602 48.91723633 C18.07215298 51.04555822 19.5012518 51.60290436 23.3984375 51.48828125 C24.37167969 51.47216797 25.34492188 51.45605469 26.34765625 51.43945312 C27.34667969 51.39755859 28.34570312 51.35566406 29.375 51.3125 C30.39722656 51.28994141 31.41945313 51.26738281 32.47265625 51.24414062 C34.98329581 51.18548082 37.49087379 51.10345928 40 51 C40.66 49.35 41.32 47.7 42 46 C44 48 44 48 45 51 C47.31 51.33 49.62 51.66 52 52 C52.33 50.68 52.66 49.36 53 48 C53.99 48.495 53.99 48.495 55 49 C55.61875 48.2265625 55.61875 48.2265625 56.25 47.4375 C56.8275 46.963125 57.405 46.48875 58 46 C60.32488881 46.2818047 61.90892835 46.95446418 64 48 C64 53.28 64 58.56 64 64 C42.88 64 21.76 64 0 64 C0 42.88 0 21.76 0 0 Z " fill="#0A0706" transform="translate(0,0)"/>
<path d="M0 0 C4.95 0 9.9 0 15 0 C15 0.66 15 1.32 15 2 C15.66 2 16.32 2 17 2 C18.00651547 6.65513406 18.16093842 10.35624633 17 15 C16.01 16.485 16.01 16.485 15 18 C12.6171875 18.29296875 12.6171875 18.29296875 9.875 18.1875 C8.26625 18.125625 6.6575 18.06375 5 18 C5.33 22.29 5.66 26.58 6 31 C7.98 31.66 9.96 32.32 12 33 C12.33 28.38 12.66 23.76 13 19 C15.97 18.67 18.94 18.34 22 18 C21.34 16.68 20.68 15.36 20 14 C19.8046875 10.546875 19.8046875 10.546875 19.875 6.75 C19.89304687 5.48671875 19.91109375 4.2234375 19.9296875 2.921875 C19.95289062 1.95765625 19.97609375 0.9934375 20 0 C21.65 0 23.3 0 25 0 C25.33 4.29 25.66 8.58 26 13 C29.96 13.33 33.92 13.66 38 14 C38 21.26 38 28.52 38 36 C36.35 36 34.7 36 33 36 C32.6596875 34.7934375 32.6596875 34.7934375 32.3125 33.5625 C31.879375 32.716875 31.44625 31.87125 31 31 C28.45224694 30.10613836 28.45224694 30.10613836 26 30 C25.67 31.98 25.34 33.96 25 36 C23.35 36 21.7 36 20 36 C20 35.34 20 34.68 20 34 C18.93458984 34.48726562 18.93458984 34.48726562 17.84765625 34.984375 C14.84587706 36.0549684 12.61024291 36.26765086 9.4375 36.25 C8.50808594 36.25515625 7.57867187 36.2603125 6.62109375 36.265625 C4 36 4 36 0 34 C0 22.78 0 11.56 0 0 Z " fill="#8A2206" transform="translate(13,14)"/>
<path d="M0 0 C0.33 0.66 0.66 1.32 1 2 C1.60062256 1.99476318 2.20124512 1.98952637 2.82006836 1.98413086 C5.52586838 1.96341986 8.23165177 1.95035875 10.9375 1.9375 C11.88302734 1.92912109 12.82855469 1.92074219 13.80273438 1.91210938 C15.15141602 1.90727539 15.15141602 1.90727539 16.52734375 1.90234375 C17.77632446 1.89448853 17.77632446 1.89448853 19.05053711 1.88647461 C21 2 21 2 22 3 C22.23427778 5.01594582 22.41336124 7.038474 22.5625 9.0625 C22.68818359 10.71958984 22.68818359 10.71958984 22.81640625 12.41015625 C22.87699219 13.26480469 22.93757813 14.11945312 23 15 C28.445 15.495 28.445 15.495 34 16 C34.0268245 20.14587582 34.04675315 24.29158038 34.0625 28.4375 C34.07087891 29.62150391 34.07925781 30.80550781 34.08789062 32.02539062 C34.09111328 33.15009766 34.09433594 34.27480469 34.09765625 35.43359375 C34.10289307 36.47572021 34.10812988 37.51784668 34.11352539 38.59155273 C34 41 34 41 33 42 C30.125 42.3125 30.125 42.3125 27 42 C25.125 40 25.125 40 24 38 C23.01 38.495 23.01 38.495 22 39 C22 39.66 22 40.32 22 41 C17.04324429 41.8025835 12.28634864 42.16221713 7.25 42.1875 C5.95578125 42.20167969 4.6615625 42.21585938 3.328125 42.23046875 C-0 42 -0 42 -3 40 C-2.67 39.34 -2.34 38.68 -2 38 C-1.67 38.33 -1.34 38.66 -1 39 C0.74765452 39.09969841 2.4995103 39.12968045 4.25 39.125 C5.68085938 39.12886719 5.68085938 39.12886719 7.140625 39.1328125 C9.86463928 39.00628725 12.34675009 38.61005381 15 38 C15 38.66 15 39.32 15 40 C16.65 40 18.3 40 20 40 C20.33 38.02 20.66 36.04 21 34 C22.65 34 24.3 34 26 34 C26.66 35.98 27.32 37.96 28 40 C29.65 40 31.3 40 33 40 C33 32.74 33 25.48 33 18 C30.0609375 18.0309375 30.0609375 18.0309375 27.0625 18.0625 C25.04167124 18.08377188 23.01964199 18.07244053 21 18 C20 17 20 17 19.90234375 14.05859375 C19.91394531 12.86363281 19.92554687 11.66867188 19.9375 10.4375 C19.94652344 9.23996094 19.95554687 8.04242188 19.96484375 6.80859375 C19.97644531 5.88175781 19.98804687 4.95492188 20 4 C18.35 4 16.7 4 15 4 C15.11433363 6.25056722 15.24186436 8.50046674 15.375 10.75 C15.44460937 12.00296875 15.51421875 13.2559375 15.5859375 14.546875 C15.95323304 17.60998121 16.39711286 19.41974266 18 22 C17 23 17 23 14.93359375 23.09765625 C14.10988281 23.08605469 13.28617188 23.07445313 12.4375 23.0625 C11.61121094 23.05347656 10.78492187 23.04445313 9.93359375 23.03515625 C8.97646484 23.01775391 8.97646484 23.01775391 8 23 C8.01160156 23.84304687 8.02320313 24.68609375 8.03515625 25.5546875 C8.04869141 27.19824219 8.04869141 27.19824219 8.0625 28.875 C8.07410156 29.96554688 8.08570313 31.05609375 8.09765625 32.1796875 C8 35 8 35 7 37 C4.625 37.125 4.625 37.125 2 37 C0 35 0 35 -0.1953125 31.9609375 C-0.17210937 30.77757813 -0.14890625 29.59421875 -0.125 28.375 C-0.10695313 27.18648437 -0.08890625 25.99796875 -0.0703125 24.7734375 C-0.04710937 23.85820313 -0.02390625 22.94296875 0 22 C3.3 22 6.6 22 10 22 C12.23841907 17.52316185 11.87325806 16.65737633 11 12 C11.4375 9.75 11.4375 9.75 12 8 C12 7.34 12 6.68 12 6 C11.34 6 10.68 6 10 6 C10 5.34 10 4.68 10 4 C5.05 4 0.1 4 -5 4 C-5 14.89 -5 25.78 -5 37 C-5.66 36.67 -6.32 36.34 -7 36 C-7.04952706 31.65838175 -7.08577954 27.31691425 -7.10986328 22.97509766 C-7.11990591 21.49883153 -7.13354265 20.02258521 -7.15087891 18.54638672 C-7.17520421 16.42149966 -7.1865004 14.29687615 -7.1953125 12.171875 C-7.20578613 10.8940918 -7.21625977 9.61630859 -7.22705078 8.29980469 C-7.01467716 5.21330811 -6.79404893 3.48991784 -5 1 C-2.375 0.25 -2.375 0.25 0 0 Z " fill="#400F05" transform="translate(18,10)"/>
<path d="M0 0 C4.95 0 9.9 0 15 0 C15 0.66 15 1.32 15 2 C15.66 2 16.32 2 17 2 C18.00651547 6.65513406 18.16093842 10.35624633 17 15 C16.01 16.485 16.01 16.485 15 18 C11.7421875 18.51171875 11.7421875 18.51171875 7.875 18.6875 C4.471875 18.8421875 4.471875 18.8421875 1 19 C1.33 23.95 1.66 28.9 2 34 C1.34 34 0.68 34 0 34 C0 22.78 0 11.56 0 0 Z " fill="#8F2606" transform="translate(13,14)"/>
<path d="M0 0 C0.04898438 0.96421875 0.09796875 1.9284375 0.1484375 2.921875 C0.22320312 4.18515625 0.29796875 5.4484375 0.375 6.75 C0.44460937 8.00296875 0.51421875 9.2559375 0.5859375 10.546875 C0.95323304 13.60998121 1.39711286 15.41974266 3 18 C2 19 2 19 -0.06640625 19.09765625 C-0.89011719 19.08605469 -1.71382812 19.07445313 -2.5625 19.0625 C-3.38878906 19.05347656 -4.21507812 19.04445313 -5.06640625 19.03515625 C-6.02353516 19.01775391 -6.02353516 19.01775391 -7 19 C-6.98839844 19.84304687 -6.97679687 20.68609375 -6.96484375 21.5546875 C-6.95130859 23.19824219 -6.95130859 23.19824219 -6.9375 24.875 C-6.92589844 25.96554688 -6.91429687 27.05609375 -6.90234375 28.1796875 C-7 31 -7 31 -8 33 C-10.375 33.125 -10.375 33.125 -13 33 C-15 31 -15 31 -15.1953125 27.9609375 C-15.17210938 26.77757813 -15.14890625 25.59421875 -15.125 24.375 C-15.10695313 23.18648437 -15.08890625 21.99796875 -15.0703125 20.7734375 C-15.04710938 19.85820313 -15.02390625 18.94296875 -15 18 C-11.7 18 -8.4 18 -5 18 C-2.76158093 13.52316185 -3.12674194 12.65737633 -4 8 C-3.5625 5.75 -3.5625 5.75 -3 4 C-3 3.34 -3 2.68 -3 2 C-3.66 1.67 -4.32 1.34 -5 1 C-1.125 0 -1.125 0 0 0 Z " fill="#641503" transform="translate(33,14)"/>
<path d="M0 0 C4.62 0 9.24 0 14 0 C14 0.66 14 1.32 14 2 C14.66 2 15.32 2 16 2 C16.79953138 5.28696233 17.09658936 6.71023192 16 10 C10.72 10 5.44 10 0 10 C0 6.7 0 3.4 0 0 Z " fill="#A83107" transform="translate(14,14)"/>
<path d="M0 0 C2.45862401 -0.05383848 4.9160755 -0.09359038 7.375 -0.125 C8.42300781 -0.15013672 8.42300781 -0.15013672 9.4921875 -0.17578125 C11.32897486 -0.19344267 13.16601963 -0.10303261 15 0 C17 2 17 2 17 6 C15.68 6 14.36 6 13 6 C13 5.01 13 4.02 13 3 C10.36 3 7.72 3 5 3 C5 4.32 5 5.64 5 7 C8.63 7 12.26 7 16 7 C16.33 8.98 16.66 10.96 17 13 C15.68 13 14.36 13 13 13 C13 12.01 13 11.02 13 10 C10.03 10 7.06 10 4 10 C4 10.99 4 11.98 4 13 C2.68 13 1.36 13 0 13 C0 8.71 0 4.42 0 0 Z " fill="#DC581E" transform="translate(33,33)"/>
<path d="M0 0 C1.32 0 2.64 0 4 0 C4.33 3.96 4.66 7.92 5 12 C6.98 12.66 8.96 13.32 11 14 C11 13.34 11 12.68 11 12 C11.66 12 12.32 12 13 12 C13 10.35 13 8.7 13 7 C14.32 7 15.64 7 17 7 C17.36595174 13.46514745 17.36595174 13.46514745 15.83203125 15.70703125 C13.32080397 17.47934731 11.54977301 17.39959494 8.5 17.375 C7.5409375 17.38273437 6.581875 17.39046875 5.59375 17.3984375 C3 17 3 17 1.16796875 15.92578125 C-0.64813071 12.93134301 -0.28254186 10.26568749 -0.1875 6.8125 C-0.16042969 5.54019531 -0.13335937 4.26789062 -0.10546875 2.95703125 C-0.07066406 1.98121094 -0.03585937 1.00539062 0 0 Z " fill="#DC5A1E" transform="translate(14,33)"/>
<path d="M0 0 C1.65 0 3.3 0 5 0 C5.33 4.29 5.66 8.58 6 13 C9.63 13.33 13.26 13.66 17 14 C17 14.99 17 15.98 17 17 C14.72975032 17.08097324 12.45867925 17.13917704 10.1875 17.1875 C8.29064453 17.23970703 8.29064453 17.23970703 6.35546875 17.29296875 C3 17 3 17 1.0625 15.9375 C-0.59475792 12.91544145 -0.28123569 10.21823004 -0.1875 6.8125 C-0.16042969 5.54019531 -0.13335937 4.26789062 -0.10546875 2.95703125 C-0.07066406 1.98121094 -0.03585938 1.00539063 0 0 Z " fill="#E25E21" transform="translate(33,14)"/>
<path d="M0 0 C0.33 0 0.66 0 1 0 C1 4.95 1 9.9 1 15 C0.34 14.67 -0.32 14.34 -1 14 C-1 13.34 -1 12.68 -1 12 C-4.63 12 -8.26 12 -12 12 C-12 10.68 -12 9.36 -12 8 C-9.36 8 -6.72 8 -4 8 C-4 8.99 -4 9.98 -4 11 C-2.68 11 -1.36 11 0 11 C-0.66 9.35 -1.32 7.7 -2 6 C-6.29 5.67 -10.58 5.34 -15 5 C-14.67 4.34 -14.34 3.68 -14 3 C-9.38 3 -4.76 3 0 3 C0 2.01 0 1.02 0 0 Z " fill="#952506" transform="translate(50,28)"/>
<path d="M0 0 C0.33 0.66 0.66 1.32 1 2 C-0.65 2.66 -2.3 3.32 -4 4 C-4.33 14.89 -4.66 25.78 -5 37 C-5.66 36.67 -6.32 36.34 -7 36 C-7.04952706 31.65838175 -7.08577954 27.31691425 -7.10986328 22.97509766 C-7.11990591 21.49883153 -7.13354265 20.02258521 -7.15087891 18.54638672 C-7.17520421 16.42149966 -7.1865004 14.29687615 -7.1953125 12.171875 C-7.20578613 10.8940918 -7.21625977 9.61630859 -7.22705078 8.29980469 C-7.01467716 5.21330811 -6.79404893 3.48991784 -5 1 C-2.375 0.25 -2.375 0.25 0 0 Z " fill="#320D06" transform="translate(18,10)"/>
<path d="M0 0 C1.32 0 2.64 0 4 0 C4 0.99 4 1.98 4 3 C5.299375 2.87625 6.59875 2.7525 7.9375 2.625 C8.66839844 2.55539063 9.39929688 2.48578125 10.15234375 2.4140625 C11.06693359 2.20910156 11.06693359 2.20910156 12 2 C12.33 1.34 12.66 0.68 13 0 C14.32 0 15.64 0 17 0 C16.67 1.98 16.34 3.96 16 6 C10.72 6 5.44 6 0 6 C0 4.02 0 2.04 0 0 Z " fill="#E25E20" transform="translate(14,18)"/>
<path d="M0 0 C1.66611905 -0.042721 3.33382885 -0.04063832 5 0 C6 1 6 1 6.09765625 3.50390625 C6.08605469 4.51324219 6.07445312 5.52257813 6.0625 6.5625 C6.05347656 7.57441406 6.04445313 8.58632813 6.03515625 9.62890625 C6.02355469 10.41136719 6.01195312 11.19382812 6 12 C4.33388095 12.042721 2.66617115 12.04063832 1 12 C0 11 0 11 -0.09765625 8.49609375 C-0.08605469 7.48675781 -0.07445313 6.47742187 -0.0625 5.4375 C-0.05347656 4.42558594 -0.04445313 3.41367187 -0.03515625 2.37109375 C-0.02355469 1.58863281 -0.01195313 0.80617187 0 0 Z " fill="#2D0D06" transform="translate(19,33)"/>
<path d="M0 0 C1.32 0 2.64 0 4 0 C4 0.99 4 1.98 4 3 C5.299375 2.87625 6.59875 2.7525 7.9375 2.625 C8.66839844 2.55539063 9.39929688 2.48578125 10.15234375 2.4140625 C11.06693359 2.20910156 11.06693359 2.20910156 12 2 C12.33 1.34 12.66 0.68 13 0 C14.32 0 15.64 0 17 0 C16.42655063 2.86724686 16.1385485 3.8614515 14 6 C10.7421875 6.1953125 10.7421875 6.1953125 6.875 6.125 C4.95300781 6.09792969 4.95300781 6.09792969 2.9921875 6.0703125 C1.51105469 6.03550781 1.51105469 6.03550781 0 6 C0 4.02 0 2.04 0 0 Z " fill="#E15C1E" transform="translate(14,25)"/>
<path d="M0 0 C2.97 0 5.94 0 9 0 C9 0.99 9 1.98 9 3 C10.32 3 11.64 3 13 3 C13.33 2.01 13.66 1.02 14 0 C14 2.31 14 4.62 14 7 C12.35 7 10.7 7 9 7 C8.6596875 5.7934375 8.6596875 5.7934375 8.3125 4.5625 C7.879375 3.716875 7.44625 2.87125 7 2 C4.45224694 1.10613836 4.45224694 1.10613836 2 1 C1.67 2.98 1.34 4.96 1 7 C-0.65 7 -2.3 7 -4 7 C-4 5.68 -4 4.36 -4 3 C-2.68 3 -1.36 3 0 3 C0 2.01 0 1.02 0 0 Z " fill="#AF3D12" transform="translate(37,43)"/>
<path d="M0 0 C1.65 0 3.3 0 5 0 C5 3.63 5 7.26 5 11 C3.35 11 1.7 11 0 11 C0 7.37 0 3.74 0 0 Z " fill="#BF4815" transform="translate(33,14)"/>
<path d="M0 0 C4.62 0 9.24 0 14 0 C14.33 0.99 14.66 1.98 15 3 C10.05 3 5.1 3 0 3 C0 2.01 0 1.02 0 0 Z " fill="#E46023" transform="translate(14,14)"/>
<path d="M0 0 C0.99 0.495 0.99 0.495 2 1 C3.76867455 1.09683564 5.54118303 1.12979382 7.3125 1.125 C8.25738281 1.12757812 9.20226563 1.13015625 10.17578125 1.1328125 C12.88595736 1.005363 15.35973585 0.60596226 18 0 C18 0.99 18 1.98 18 3 C14.76724299 3.95530645 11.80324361 4.16460378 8.4375 4.1875 C7.48746094 4.20167969 6.53742187 4.21585938 5.55859375 4.23046875 C3 4 3 4 0 2 C0 1.34 0 0.68 0 0 Z " fill="#4D1105" transform="translate(15,48)"/>
<path d="M0 0 C0 4.29 0 8.58 0 13 C-0.66 13 -1.32 13 -2 13 C-3.64092358 9.52510301 -4.26259473 7.66152472 -3 4 C-3 3.34 -3 2.68 -3 2 C-3.66 1.67 -4.32 1.34 -5 1 C-1.125 0 -1.125 0 0 0 Z " fill="#731803" transform="translate(33,14)"/>
<path d="M0 0 C5.28 0 10.56 0 16 0 C16 1.32 16 2.64 16 4 C14.68 4 13.36 4 12 4 C12 3.01 12 2.02 12 1 C6.06 1.495 6.06 1.495 0 2 C0 1.34 0 0.68 0 0 Z " fill="#E96424" transform="translate(34,35)"/>
<path d="M0 0 C1.485 0.99 1.485 0.99 3 2 C3 3.32 3 4.64 3 6 C3.94875 5.95875 4.8975 5.9175 5.875 5.875 C9 6 9 6 11 8 C9.35425434 8.02688151 7.70838587 8.04634123 6.0625 8.0625 C5.14597656 8.07410156 4.22945312 8.08570313 3.28515625 8.09765625 C1 8 1 8 0 7 C-0.04092937 4.66702567 -0.04241723 2.33294775 0 0 Z " fill="#150A08" transform="translate(40,18)"/>
<path d="M0 0 C1.32 0 2.64 0 4 0 C4 1.98 4 3.96 4 6 C2.68 6 1.36 6 0 6 C0 4.02 0 2.04 0 0 Z " fill="#E05C21" transform="translate(27,33)"/>
<path d="M0 0 C1.32 0 2.64 0 4 0 C4 0.99 4 1.98 4 3 C6.64 3 9.28 3 12 3 C12 3.33 12 3.66 12 4 C8.04 4 4.08 4 0 4 C0 2.68 0 1.36 0 0 Z " fill="#EA6426" transform="translate(14,25)"/>
<path d="M0 0 C1.32 0 2.64 0 4 0 C4 1.98 4 3.96 4 6 C2.68 6 1.36 6 0 6 C0 4.02 0 2.04 0 0 Z " fill="#DB5A1F" transform="translate(33,18)"/>
<path d="M0 0 C0.33 0 0.66 0 1 0 C1 4.95 1 9.9 1 15 C0.34 14.34 -0.32 13.68 -1 13 C-1 11 -1 9 -1 7 C-1.66 6.01 -2.32 5.02 -3 4 C-2.01 4 -1.02 4 0 4 C0 2.68 0 1.36 0 0 Z " fill="#681905" transform="translate(50,28)"/>
<path d="M0 0 C2.31 0 4.62 0 7 0 C7 0.99 7 1.98 7 3 C4.69 3 2.38 3 0 3 C0 2.01 0 1.02 0 0 Z " fill="#761803" transform="translate(19,18)"/>
<path d="M0 0 C2.29013653 3.4352048 2.17842973 4.985331 2 9 C1.01 8.67 0.02 8.34 -1 8 C-1.125 2.25 -1.125 2.25 0 0 Z " fill="#0E0705" transform="translate(22,35)"/>
<path d="M0 0 C1.32 0 2.64 0 4 0 C4.66 1.32 5.32 2.64 6 4 C4.02 4 2.04 4 0 4 C0 2.68 0 1.36 0 0 Z " fill="#D25119" transform="translate(14,43)"/>
<path d="M0 0 C1.98 0 3.96 0 6 0 C5.67 0.99 5.34 1.98 5 3 C3.35 3 1.7 3 0 3 C0 2.01 0 1.02 0 0 Z " fill="#6E1701" transform="translate(19,25)"/>
</svg>
