<?xml version="1.0" encoding="UTF-8" standalone="no"?>
<!-- Created with Inkscape (http://www.inkscape.org/) -->

<svg
   width="5.8220019mm"
   height="5.5559826mm"
   viewBox="0 0 5.8220019 5.5559826"
   version="1.1"
   id="svg1037"
   inkscape:version="1.1.2 (0a00cf5339, 2022-02-04)"
   sodipodi:docname="gfi.svg"
   xmlns:inkscape="http://www.inkscape.org/namespaces/inkscape"
   xmlns:sodipodi="http://sodipodi.sourceforge.net/DTD/sodipodi-0.dtd"
   xmlns="http://www.w3.org/2000/svg"
   xmlns:svg="http://www.w3.org/2000/svg">
  <sodipodi:namedview
     id="namedview1039"
     pagecolor="#ffffff"
     bordercolor="#666666"
     borderopacity="1.0"
     inkscape:pageshadow="2"
     inkscape:pageopacity="0.0"
     inkscape:pagecheckerboard="0"
     inkscape:document-units="mm"
     showgrid="false"
     inkscape:zoom="6.5374852"
     inkscape:cx="6.5774528"
     inkscape:cy="22.179783"
     inkscape:window-width="1920"
     inkscape:window-height="1008"
     inkscape:window-x="0"
     inkscape:window-y="0"
     inkscape:window-maximized="1"
     inkscape:current-layer="layer1" />
  <defs
     id="defs1034" />
  <g
     inkscape:label="Layer 1"
     inkscape:groupmode="layer"
     id="layer1"
     transform="translate(-111.59493,-76.660548)">
    <path
       d="m 115.97643,77.914062 c -0.10652,0.115962 -0.35501,0.11484 -0.46153,0.01047 -0.1065,-0.104368 -0.14201,-0.306374 0,-0.433933 0.14202,-0.127555 0.35501,-0.08104 0.46153,0.01173 0.1065,0.09277 0.1065,0.29577 0,0.411731 z"
       fill="#000000"
       id="path2"
       style="stroke-width:0.264583" />
    <path
       d="m 114.85812,77.085366 c -0.11626,0.138906 -0.1614,0.219818 -0.24913,0.441232 -0.11372,0.286925 -0.21595,0.603742 -0.25747,0.799846 -0.0415,0.196102 0.0412,0.364538 0.22977,0.47937 0.19947,0.12147 0.41447,0.216032 0.70514,0.322262 0.29067,0.10623 0.49924,0.257652 0.56568,0.412883 0.0664,0.155257 0.0513,0.45421 -0.0982,0.740198 -0.14949,0.285988 -0.35783,0.551735 -0.72324,0.813223 -0.36542,0.261461 -0.61503,0.323639 -0.97637,0.405342 -0.36134,0.0817 -0.24268,0.283051 -0.1181,0.323903 0.12457,0.04085 0.39861,0.0817 0.76406,0.06535 0.36544,-0.01632 0.73038,-0.10623 1.16223,-0.318664 0.43188,-0.212434 0.85543,-0.580126 1.08011,-1.070399 0.22468,-0.490246 0.3143,-1.181946 0.054,-1.617847 -0.15129,-0.253299 -0.22881,-0.314286 -0.27863,-0.473914 -0.0498,-0.159628 -0.0179,-0.281268 0.0749,-0.392208 0.0535,-0.06396 0.17312,-0.12836 0.28271,-0.205369 0.0864,-0.0607 0.19052,-0.121468 0.26527,-0.170493 0.0747,-0.04903 0.10014,-0.07464 0.0503,-0.10732 l -0.002,-0.0012 c -0.0504,-0.03307 -0.14978,-0.09826 -0.3226,-0.16115 -0.17489,-0.06365 -0.20781,-0.07241 -0.2739,-0.07761 -0.0661,-0.0052 -0.14917,0.052 -0.28205,0.150048 -0.13287,0.09805 -0.191,0.117199 -0.19931,0.228787 -0.008,0.111588 -0.0415,0.253299 -0.13287,0.375865 -0.0914,0.122563 -0.21384,0.184793 -0.3778,0.200991 -0.16396,0.01619 -0.38571,-0.0334 -0.49472,-0.159039 -0.10903,-0.12564 -0.15295,-0.197292 -0.15295,-0.375457 0,-0.178162 0.0704,-0.303831 0.16396,-0.39371 0.0936,-0.08988 0.0891,-0.122566 0.0891,-0.16342 0,-0.04085 -0.0217,-0.179824 -0.04,-0.244613 -0.0182,-0.06479 -0.0835,-0.07498 -0.19005,-0.04088 -0.11161,0.03571 -0.20186,0.07506 -0.31814,0.213963 z"
       fill="#000000"
       id="path4"
       style="stroke-width:0.264583" />
    <path
       d="m 113.21142,80.495152 c -0.0538,0.01384 -0.0916,0.103822 -0.1972,0.283818 -0.10564,0.17997 -0.20476,0.311521 -0.39387,0.51226 -0.18912,0.200766 -0.30792,0.283819 -0.60876,0.463815 l -0.008,0.0046 c -0.29459,0.176265 -0.38123,0.228097 -0.40168,0.281384 -0.0206,0.05379 -0.008,0.124619 0.21266,0.157851 0.22116,0.03323 0.40552,0.04069 0.72499,-0.173884 0.31947,-0.214604 0.57048,-0.422275 0.9015,-0.57457 0.33101,-0.152294 0.43465,-0.142742 0.80542,-0.249211 0.37079,-0.106494 0.70879,-0.315436 0.94202,-0.569356 0.23326,-0.253921 0.34986,-0.509879 0.39712,-0.655294 0.0472,-0.145415 0.0539,-0.339196 -0.0722,-0.436139 -0.12055,-0.0926 -0.18566,-0.120438 -0.45173,-0.217382 -0.28294,-0.103081 -0.37687,-0.128905 -0.58534,-0.290459 -0.19642,-0.152242 -0.18478,-0.188622 -0.30822,-0.204761 -0.12344,-0.01617 -0.217,0.163803 -0.25865,0.25392 -0.0313,0.06779 -0.0367,0.187484 0.0463,0.300144 0.083,0.112659 0.16015,0.236669 0.38745,0.362558 0.2273,0.125862 0.33321,0.146024 0.48818,0.171185 0.15499,0.02519 0.2155,0.06093 0.17386,0.132636 -0.0417,0.0717 -0.12497,0.106495 -0.26657,0.106495 -0.14163,0 -0.34155,-0.06353 -0.54148,-0.178197 -0.14099,-0.08086 -0.24158,-0.172006 -0.31506,-0.262123 -0.0714,-0.08758 -0.11428,-0.100303 -0.18051,-0.100303 -0.0662,0 -0.12071,0.04096 -0.19993,0.155628 -0.0792,0.114697 -0.13753,0.238918 -0.14586,0.306202 -0.008,0.06728 -0.0158,0.142319 0.10915,0.232436 0.12496,0.09009 0.23292,0.139065 0.37454,0.163645 0.14161,0.02458 0.24938,0.06768 0.14564,0.159809 -0.10372,0.0921 -0.22947,0.0717 -0.32944,0.04712 -0.1,-0.02458 -0.24501,-0.100806 -0.29989,-0.135414 -0.0549,-0.03461 -0.0908,-0.06231 -0.14464,-0.04845 z m 3.13969,-3.234232 c 0.0752,-0.04559 0.15822,-0.105432 0.15822,-0.147289 0,-0.04186 -0.0423,-0.09209 -0.21997,-0.200924 -0.17767,-0.108834 -0.42302,-0.232442 -0.58378,-0.251159 -0.16073,-0.01872 -0.0911,0.230265 -0.0722,0.328729 0.019,0.09847 0.0246,0.175123 0.0914,0.183084 0.0668,0.008 0.11692,0.01592 0.17536,0.03184 0.0584,0.01592 0.13362,0.05025 0.21712,0.09801 0.0835,0.04776 0.15867,0.0033 0.23381,-0.04229 z"
       fill="#000000"
       id="path6"
       sodipodi:nodetypes="ccccccscscccccccccccssccscccscscccsscscssc"
       style="stroke-width:0.264583" />
  </g>
</svg>
