<svg width="257" height="256" viewBox="0 0 257 256" fill="none" xmlns="http://www.w3.org/2000/svg">
<g clip-path="url(#clip0_374_14287)">
<path d="M155.375 6.78125V65.0225L205.938 35.861L155.375 6.78125Z" fill="#464648"/>
<path opacity="0.9" d="M205.938 35.8584V94.0996L256.5 65.0199L205.938 35.8584Z" fill="#464648"/>
<path opacity="0.8" d="M155.457 65.0198V123.261L205.938 94.0995L155.457 65.0198Z" fill="#464648"/>
<path opacity="0.8" d="M205.938 94.1025V152.344L256.5 123.264L205.938 94.1025Z" fill="#464648"/>
<path opacity="0.8" d="M155.457 123.264V181.505L205.938 152.343L155.457 123.264Z" fill="#464648"/>
<path d="M205.938 152.341V210.582L256.5 181.503L205.938 152.341Z" fill="#464648"/>
<path opacity="0.5" d="M24.6797 63.0649V121.306L75.2425 92.1447L24.6797 63.0649Z" fill="#464648"/>
<path opacity="0.2" d="M88.4746 84.709V142.95L138.956 113.789L88.4746 84.709Z" fill="#464648"/>
<path opacity="0.4" d="M50.9805 121.55V179.791L101.543 150.63L50.9805 121.55Z" fill="#464648"/>
<path opacity="0.9" d="M84.3086 165.493V223.734L134.79 194.573L84.3086 165.493Z" fill="#464648"/>
<path opacity="0.7" d="M154.967 190.571V248.812L205.53 219.651L154.967 190.571Z" fill="#464648"/>
<path opacity="0.9" d="M96.8867 55.9565V114.198L147.368 85.118L96.8867 55.9565Z" fill="#464648"/>
<path opacity="0.8" d="M155.374 6.78125V65.0225L104.893 35.861L155.374 6.78125Z" fill="#464648"/>
<path opacity="0.7" d="M96.889 31.4502V89.6914L46.3262 60.6117L96.889 31.4502Z" fill="#464648"/>
<path opacity="0.6" d="M147.45 60.3647V118.606L96.8867 89.4445L147.45 60.3647Z" fill="#464648"/>
<path d="M88.2273 84.709V142.95L37.7461 113.789L88.2273 84.709Z" fill="#464648"/>
<path opacity="0.6" d="M155.455 123.264V181.505L104.893 152.343L155.455 123.264Z" fill="#464648"/>
<path opacity="0.65" d="M50.9812 136.825V194.984L0.5 165.905L50.9812 136.825Z" fill="#464648"/>
<path d="M256.5 65.0198V123.261L205.938 94.0995L256.5 65.0198Z" fill="#464648"/>
<path opacity="0.95" d="M205.938 94.1025V152.344L155.457 123.264L205.938 94.1025Z" fill="#464648"/>
<path opacity="0.9" d="M256.499 123.264V181.505L206.018 152.343L256.499 123.264Z" fill="#464648"/>
<path opacity="0.7" d="M205.938 152.341V210.582L155.375 181.503L205.938 152.341Z" fill="#464648"/>
<path opacity="0.4" d="M144.184 176.685V234.926L93.6211 205.847L144.184 176.685Z" fill="#464648"/>
<path d="M205.938 35.8584V94.0996L155.457 65.0199L205.938 35.8584Z" fill="#464648"/>
</g>
<defs>
<clipPath id="clip0_374_14287">
<rect width="256" height="256" fill="white" transform="translate(0.5)"/>
</clipPath>
</defs>
</svg>
