<svg width="331" height="332" viewBox="0 0 331 332" fill="none" xmlns="http://www.w3.org/2000/svg">
<path d="M165.303 0.496094H165.302C74.0082 0.496094 0 74.5043 0 165.798V165.799C0 257.093 74.0082 331.101 165.302 331.101H165.303C256.597 331.101 330.605 257.093 330.605 165.799V165.798C330.605 74.5043 256.597 0.496094 165.303 0.496094Z" fill="black"/>
<path d="M165.303 0.496094H165.302C74.0082 0.496094 0 74.5043 0 165.798V165.799C0 257.093 74.0082 331.101 165.302 331.101H165.303C256.597 331.101 330.605 257.093 330.605 165.799V165.798C330.605 74.5043 256.597 0.496094 165.303 0.496094Z" fill="black"/>
<mask id="mask0_15_20" style="mask-type:luminance" maskUnits="userSpaceOnUse" x="82" y="100" width="166" height="131">
<path d="M247.953 100.818H82.6509V230.312H247.953V100.818Z" fill="white"/>
</mask>
<g mask="url(#mask0_15_20)">
<path d="M109.416 199.809C110.429 198.796 111.803 198.228 113.235 198.228H245.393C247.8 198.228 249.005 201.138 247.302 202.84L221.188 228.933C220.175 229.946 218.801 230.515 217.369 230.515H85.2114C82.8039 230.515 81.5989 227.603 83.3019 225.902L109.416 199.809Z" fill="white"/>
<path d="M109.416 102.323C110.429 101.311 111.803 100.742 113.235 100.742H245.393C247.8 100.742 249.005 103.653 247.302 105.355L221.188 131.448C220.175 132.461 218.801 133.029 217.369 133.029H85.2114C82.8039 133.029 81.5989 130.118 83.3019 128.417L109.416 102.323Z" fill="white"/>
<path d="M221.188 150.757C220.175 149.745 218.801 149.176 217.369 149.176H85.2114C82.8039 149.176 81.5989 152.088 83.3019 153.789L109.416 179.883C110.429 180.895 111.803 181.464 113.235 181.464H245.393C247.8 181.464 249.005 178.552 247.302 176.85L221.188 150.757Z" fill="white"/>
</g>
<path d="M301.087 165.798C301.087 240.79 240.294 301.582 165.302 301.582C90.3112 301.582 29.5186 240.79 29.5186 165.798C29.5186 90.8068 90.3112 30.0142 165.302 30.0142C240.294 30.0142 301.087 90.8068 301.087 165.798Z" stroke="white" stroke-width="11.8073"/>
</svg>
