<svg width="200" height="200" viewBox="0 0 200 200" fill="none" xmlns="http://www.w3.org/2000/svg">
<rect width="200" height="200" rx="100" fill="black"/>
<circle cx="99.9833" cy="98.9815" r="79.8366" stroke="white" stroke-width="6.94231"/>
<path d="M107.954 79.5094C102.228 83.4614 96.0707 84.8155 89.4939 83.5642C82.9058 82.3206 77.6727 78.8774 73.7833 73.2421L67.9958 64.8567L76.2979 59.1268L82.0853 67.5121C84.3878 70.8482 87.461 72.8704 91.3159 73.5709C95.1596 74.2792 98.7801 73.4611 102.155 71.1318L116.801 60.9599C121.456 57.727 127.852 58.8897 131.071 63.5541L107.954 79.5094Z" fill="white"/>
<path d="M119.162 107.37C115.203 101.634 113.839 95.4701 115.078 88.8911C116.309 82.3008 119.74 77.0702 125.365 73.1882L133.735 67.4116L139.475 75.7294L131.106 81.5059C127.776 83.8041 125.761 86.8757 125.067 90.732C124.366 94.577 125.19 98.2014 127.524 101.583L137.737 116.288C140.964 120.935 139.804 127.318 135.148 130.532L119.162 107.37Z" fill="white"/>
<path d="M91.195 118.637C96.921 114.685 103.078 113.331 109.655 114.582C116.243 115.826 121.476 119.269 125.365 124.904L131.153 133.29L122.851 139.02L117.063 130.634C114.761 127.298 111.688 125.276 107.833 124.576C103.989 123.867 100.369 124.685 96.9938 127.015L82.3476 137.187C77.6926 140.419 71.297 139.257 68.0776 134.592L91.195 118.637Z" fill="white"/>
<path d="M80.488 91.5007C84.4474 97.2374 85.8116 103.401 84.5727 109.98C83.3416 116.57 79.9099 121.801 74.2853 125.683L65.9157 131.459L60.175 123.142L68.5445 117.365C71.8743 115.067 73.8897 111.995 74.5829 108.139C75.284 104.294 74.4599 100.67 72.1263 97.2885L61.9132 82.5827C58.6864 77.9364 59.8469 71.5528 64.5025 68.3395L80.488 91.5007Z" fill="white"/>
</svg>
