<svg width="1000" height="800" viewBox="0 0 1000 800" fill="none" xmlns="http://www.w3.org/2000/svg">
<path fill-rule="evenodd" clip-rule="evenodd" d="M547.031 797.184C735.372 775.063 886.858 621.097 899.196 425.138C913.075 204.655 745.573 14.6667 525.064 0.785333C498.709 -0.872524 472.799 0.13313 447.558 3.43622C394.548 7.77442 349.802 27.959 349.802 27.959C313.608 45.6316 290.181 75.2584 290.181 114.9C290.181 166.436 331.964 208.215 383.506 208.215C392.128 208.215 421.968 198.781 429.021 196.324C455.352 187.147 483.904 182.943 513.479 184.807C589.668 189.604 654.062 233.428 688.548 295.551C707.868 330.358 717.841 370.883 715.152 413.554C707.674 532.41 605.251 622.692 486.387 615.211C416.157 610.792 355.921 573.221 319.912 518.71C279.013 465.188 285.93 381.226 286.694 371.956L286.694 371.955C286.734 371.464 286.758 371.183 286.755 371.127C284.988 321.038 243.929 280.942 193.397 280.942C150.221 280.942 113.98 310.241 103.212 350.004C101.095 357.814 100.035 380.704 100.342 383.771C91.4498 600.437 257.273 785.541 474.802 799.229C499.336 800.773 523.457 799.952 547.031 797.184ZM319.916 518.769C319.916 518.748 319.916 518.731 319.912 518.71C319.912 518.731 319.916 518.748 319.916 518.769ZM18.0485 68.5761C35.5588 78.9735 58.174 73.2067 68.576 55.7011C78.9737 38.1955 73.2067 15.5723 55.7006 5.17486C38.1945 -5.22257 15.5708 0.540017 5.17309 18.0499C-5.22033 35.5555 0.53813 58.1787 18.0485 68.5761ZM164.476 92.9827C188.216 107.082 218.89 99.2674 232.986 75.5281C247.081 51.7889 239.266 21.1144 215.527 7.01484C191.792 -7.08061 161.117 0.734282 147.018 24.4736C132.918 48.2128 140.733 78.8832 164.476 92.9827ZM92.7318 244.364C124.481 263.223 165.508 252.768 184.367 221.019C203.222 189.269 192.767 148.242 161.017 129.387C129.264 110.528 88.2408 120.979 69.3861 152.733C50.5271 184.482 60.9823 225.51 92.7318 244.364Z" fill="url(#paint0_linear_111_722)"/>
<defs>
<linearGradient id="paint0_linear_111_722" x1="0" y1="0" x2="450" y2="800" gradientUnits="userSpaceOnUse">
<stop stop-color="#5F45BA"/>
<stop offset="1" stop-color="#3B146A"/>
</linearGradient>
</defs>
</svg>
