<svg width="72" height="72" xmlns="http://www.w3.org/2000/svg"><path fill-rule="evenodd" clip-rule="evenodd" d="m25.2,43.2c9.94,0,18-8.06,18-18s-8.06-18-18-18-18,8.06-18,18,8.06,18,18,18zm0,7.2c13.92,0,25.2-11.28,25.2-25.2S39.12,0,25.2,0,0,11.28,0,25.2,11.28,50.4,25.2,50.4z" fill="#5e2cf2"/><path d="m0,45.57c2.05,2.54,4.48,4.76,7.2,6.58V64.8h57.6L72,72H0V45.57z" fill="#5e2cf2"/><path d="m72,57.6V0H45.57c2.54,2.05,4.76,4.48,6.58,7.2H64.8v43.2l7.2,7.2z" fill="#5e2cf2"/><path d="m0,0h4.83C3.06,1.44,1.44,3.06,0,4.83V0z" fill="#5e2cf2"/><path d="m48.11,48.11c-1.71,1.71-3.61,3.23-5.66,4.52L54.62,64.8H7.2V52.14C4.48,50.32,2.05,48.1,0,45.56V72h72L48.11,48.11z" fill="#5e2cf2"/><path d="m2.29,2.29L0,0v4.83c.72-.89,1.48-1.74,2.29-2.54z" fill="#5e2cf2"/></svg>