<?xml version="1.0" encoding="utf-8"?>
<!-- Generator: Adobe Illustrator 27.1.1, SVG Export Plug-In . SVG Version: 6.00 Build 0)  -->
<svg version="1.1" id="RLUSD" xmlns="http://www.w3.org/2000/svg" xmlns:xlink="http://www.w3.org/1999/xlink" x="0px" y="0px"
	 viewBox="0 0 1000 1000" style="enable-background:new 0 0 1000 1000;" xml:space="preserve">
<style type="text/css">
	.st0{fill:#006AFF;}
	.st1{fill:#FFFFFF;}
</style>
<g>
	<circle class="st0" cx="500" cy="500" r="500"/>
	<path class="st1" d="M605.8,784.6c66.9,0,119-54.1,119-116.9c0-67.2-48.8-116.7-119-120.9c-33-2-52.6-19.4-52.6-46.8
		c0-27.4,19.6-44.9,52.6-46.8c70.2-4.2,119-53.7,119-120.9c0-62.8-52.1-116.9-119-116.9c-67.3,0-118.8,54.9-118.8,116.9
		c0,19.5,5,40.2,15.7,61.6c5.6,11.3,8.3,21.7,8.3,31.1c0,28-24.9,44.3-45.3,44.3c-16.4,0-31.8-10-44.1-28.6
		c-25.6-38.9-61.4-59.5-103.1-59.5c-65.6,0-118.9,53.2-118.9,118.9s53.2,118.9,118.9,118.9c41.8,0,77.5-20.6,103.1-59.5
		c12.3-18.6,27.7-28.6,44.1-28.6c20.3,0,45.3,16.4,45.3,44.3c0,9.4-2.6,19.8-8.3,31.1c-10.7,21.3-15.7,42-15.7,61.6
		C487.1,729.3,538,784.6,605.8,784.6z"/>
</g>
</svg>
