<svg xmlns="http://www.w3.org/2000/svg" width="32" height="32" viewBox="0 0 32 32">
  <g fill="none">
    <circle cx="16" cy="16" r="16" fill="#000"/>
    <path d="M9.925 19.687a.59.59 0 01.415-.17h14.366a.29.29 0 01.207.497l-2.838 2.815a.59.59 0 01-.415.171H7.294a.291.291 0 01-.207-.498l2.838-2.815zm0-10.517A.59.59 0 0110.34 9h14.366a.291.291 0 01.207.498l-2.838 2.815a.59.59 0 01-.415.17H7.294a.291.291 0 01-.207-.497l2.838-2.816zm12.15 5.258a.59.59 0 00-.415-.17H7.294a.291.291 0 00-.207.498l2.838 2.815c.11.11.259.17.415.17h14.366a.291.291 0 00.207-.497l-2.838-2.816z" fill="#FFF"/>
  </g>
</svg>