<svg width="1071" height="811" viewBox="0 0 1071 811" fill="none" xmlns="http://www.w3.org/2000/svg">
<path fill-rule="evenodd" clip-rule="evenodd" d="M1069.74 530.786C1064.87 554.694 1043.44 571.906 1019.1 572.864C994.745 573.822 974.295 559.474 966.502 539.393C959.684 523.134 946.052 510.701 930.465 503.048L859.372 473.403C844.76 467.665 828.203 468.619 812.62 474.356C805.479 476.907 798.013 478.183 790.22 478.183C778.534 477.229 767.82 473.403 759.055 466.708L606.149 526.96C596.41 530.782 588.621 538.435 584.724 547.999C580.828 556.605 574.009 564.258 566.22 569.995C555.506 577.644 548.688 589.123 548.688 602.514V684.758C548.688 697.191 555.506 708.67 565.245 716.319C578.881 725.882 588.621 741.184 588.621 759.358C588.621 787.093 564.27 811 535.052 811C505.833 811 482.462 787.093 482.462 759.358C482.462 741.184 491.226 725.882 504.862 716.319C515.573 708.67 522.391 697.191 522.391 684.758V602.514C522.391 589.123 515.573 577.644 503.887 569.995C496.094 564.258 490.251 556.605 486.358 547.999C481.487 538.435 473.698 530.782 463.958 526.96L311.048 466.708C303.259 473.403 292.544 477.229 280.858 478.183C272.418 478.183 264.624 476.907 257.483 474.356C242.876 468.619 226.318 467.665 211.711 473.403L140.613 503.048C124.056 510.701 110.419 523.134 104.577 539.393C95.8123 559.474 75.3581 573.822 51.0116 572.864C27.6359 571.906 6.21076 554.694 1.33886 530.786C-3.52873 509.743 5.23554 488.704 21.7931 476.272C36.4002 466.708 46.1397 452.364 50.0363 435.147C61.7263 371.073 88.019 309.863 125.031 255.348C137.692 237.178 141.588 215.182 138.663 193.185C138.015 186.812 138.339 180.435 139.638 174.057C144.51 151.107 164.96 134.848 187.36 132.933C193.203 132.297 198.722 132.615 203.918 133.89C222.421 137.717 240.925 135.801 256.512 125.284C315.92 85.1174 382.145 59.2944 453.243 47.8194C467.85 44.9507 481.487 37.2979 490.251 24.8652C499.99 9.56383 516.548 0 535.052 0C554.531 0 571.088 9.56383 580.828 24.8652C588.621 37.2979 603.228 44.9507 617.835 47.8194C688.933 59.2944 755.159 85.1174 814.571 125.284C829.178 135.801 848.657 137.717 866.19 133.89C871.381 132.615 876.9 132.297 882.743 132.933C906.119 134.848 925.598 151.107 931.44 174.057C932.739 180.435 933.063 186.812 932.416 193.185C928.519 215.182 933.391 237.178 945.077 255.348C983.059 309.863 1008.38 371.073 1021.04 435.147C1023.96 452.364 1034.68 466.708 1049.29 476.272C1064.87 488.704 1074.61 509.743 1069.74 530.786ZM357.799 384.459L472.722 336.639C477.59 334.728 480.511 329.949 480.511 325.165C481.487 319.427 477.59 313.689 472.722 311.774L261.379 222.83C249.694 218.05 236.058 219.962 226.318 227.614C221.774 230.801 216.902 233.352 211.711 235.267C207.163 237.178 202.942 238.136 199.05 238.136C177.621 241.005 158.142 251.526 146.456 269.696C109.448 322.296 85.0976 382.548 74.3872 445.665C71.4658 458.101 77.3086 469.577 87.0481 477.229C87.0481 477.865 87.3717 478.183 88.019 478.183C97.7585 485.836 110.419 488.704 122.109 483.92C137.692 477.225 158.142 468.619 177.621 460.013C200.996 450.449 218.525 431.321 227.293 408.371C227.293 407.095 227.617 405.816 228.264 404.54C236.058 385.417 254.561 372.026 275.015 372.026C287.676 371.069 299.362 374.895 308.126 380.633C322.738 390.196 342.217 391.154 357.799 384.459ZM522.391 395.934C522.391 388.285 517.523 380.637 510.705 377.764C505.509 374.577 500.966 371.069 497.069 367.246C491.226 361.505 481.487 360.551 473.698 363.42L342.217 418.888C336.374 420.799 332.477 426.541 331.502 432.278V433.232C330.527 440.885 335.399 448.538 343.188 451.406L464.929 499.226C474.668 504.006 486.358 500.179 494.147 491.573C498.044 487.111 502.912 483.285 508.759 480.098C517.523 475.314 522.391 466.708 522.391 458.101V395.934ZM522.391 153.976C522.391 131.022 513.626 108.072 497.069 90.8549C497.069 90.8549 496.745 90.5373 496.098 89.8975C483.433 76.5072 463.958 69.8161 445.45 73.6383C375.327 87.0286 310.077 115.72 252.615 158.756C246.772 162.582 244.822 170.235 245.797 176.93C245.797 176.93 245.797 177.244 245.797 177.884C246.772 184.579 250.665 190.316 257.483 192.227C298.387 209.444 441.558 270.65 484.408 287.867C491.226 290.735 499.019 289.777 504.862 285.955C506.808 284.04 509.083 282.765 511.68 282.129C518.494 278.303 522.391 271.607 522.391 263.955V153.976ZM548.688 263.955C548.688 270.65 552.584 278.303 559.402 281.171C561.349 282.447 563.623 283.722 566.22 284.998C572.063 289.778 579.852 290.735 586.67 287.867C628.55 269.696 772.692 209.444 813.596 192.227C819.439 189.359 824.31 184.579 825.281 177.884C825.281 177.244 825.281 176.608 825.281 175.973C826.257 169.277 823.335 162.582 818.468 157.802C761.006 115.72 695.751 87.0286 625.628 73.6383C607.125 69.8161 587.646 76.5072 574.01 89.8975C574.01 89.8975 574.01 90.2193 574.01 90.8549C557.452 107.114 548.688 130.064 548.688 153.976V263.955ZM738.606 432.278V431.321C737.63 425.583 733.734 420.804 728.866 417.935L596.41 362.463C588.621 359.594 579.852 360.551 574.01 367.246C570.113 371.069 565.569 374.26 560.373 376.81C553.555 380.633 548.688 387.328 548.688 395.934V457.144C548.688 465.75 553.56 474.356 561.349 479.14C567.191 482.327 572.387 486.471 576.931 491.573C583.749 500.179 595.435 503.048 606.149 499.226L727.891 451.406C735.68 447.58 740.552 439.931 738.606 432.278ZM996.696 444.711C985.006 381.59 960.659 322.296 924.622 268.739C911.962 251.522 892.482 240.047 871.057 237.178C867.161 237.178 863.264 236.543 859.372 235.267C854.176 233.352 849.309 230.483 844.76 226.661C835.021 219.008 820.414 217.097 808.728 221.877L598.356 310.821C592.513 312.732 589.592 318.469 589.592 324.207V325.165C590.567 329.949 593.489 333.771 597.385 335.686L712.308 383.501C728.866 391.154 747.37 389.243 762.952 379.679C771.716 373.942 782.431 371.069 796.067 371.069C816.517 371.069 835.021 384.459 841.839 403.587C842.491 404.862 843.138 406.138 843.789 407.413C852.554 430.363 870.082 449.491 893.458 460.013C911.962 467.661 933.391 476.272 947.998 482.967C959.684 487.747 973.32 485.836 983.059 477.229C983.059 477.229 983.383 477.229 984.035 477.229C993.774 469.577 998.642 457.144 996.696 444.711Z" fill="#454EEC"/>
</svg>
