<?xml version="1.0" encoding="UTF-8" standalone="no"?>
<svg
   width="24"
   height="24"
   viewBox="0 0 24 24"
   fill="none"
   stroke="currentColor"
   stroke-width="2"
   stroke-linecap="round"
   stroke-linejoin="round"
   class="lucide lucide-fingerprint-icon lucide-fingerprint"
   version="1.1"
   id="svg286"
   sodipodi:docname="Aug29.Greenfire.Design.LogoIcon.loginStandard.svg"
   xml:space="preserve"
   inkscape:version="1.2.2 (b0a8486541, 2022-12-01)"
   xmlns:inkscape="http://www.inkscape.org/namespaces/inkscape"
   xmlns:sodipodi="http://sodipodi.sourceforge.net/DTD/sodipodi-0.dtd"
   xmlns="http://www.w3.org/2000/svg"
   xmlns:svg="http://www.w3.org/2000/svg"><defs
     id="defs290"><style
       id="style513">.cls-1{fill:#231f20;}</style><style
       id="style588">.cls-1{fill:#231f20;}.cls-2{fill:#cd2029;}</style></defs><sodipodi:namedview
     id="namedview288"
     pagecolor="#ffffff"
     bordercolor="#000000"
     borderopacity="0.25"
     inkscape:showpageshadow="2"
     inkscape:pageopacity="0.0"
     inkscape:pagecheckerboard="0"
     inkscape:deskcolor="#d1d1d1"
     showgrid="false"
     inkscape:zoom="4.3645833"
     inkscape:cx="-52.238664"
     inkscape:cy="12.601432"
     inkscape:window-width="1360"
     inkscape:window-height="748"
     inkscape:window-x="1636"
     inkscape:window-y="219"
     inkscape:window-maximized="0"
     inkscape:current-layer="svg286" /><path
     d="M12 10a2 2 0 0 0-2 2c0 1.02-.1 2.51-.26 4"
     id="path268" /><path
     d="M14 13.12c0 2.38 0 6.38-1 8.88"
     id="path270" /><path
     d="M2 12a10 10 0 0 1 18-6"
     id="path274" /><path
     d="M2 16h.01"
     id="path276" /><path
     d="M21.8 16c.2-2 .131-5.354 0-6"
     id="path278" /><path
     d="M5 19.5C5.5 18 6 15 6 12a6 6 0 0 1 .34-2"
     id="path280" /><path
     d="M8.65 22c.21-.66.45-1.32.57-2"
     id="path282" /><path
     d="M9 6.8a6 6 0 0 1 9 5.2v2"
     id="path284" /><g
     id="Layer_1-2"
     data-name="Layer 1"
     transform="matrix(0.07955808,0,0,0.07955808,12.338436,8.219478)"><path
       class="cls-1"
       d="m 83,126.65 c -6.43,13.38 -3.22,32.7 -3.22,32.7 C 50.32,135.8 62.28,102.71 62.28,102.71 66.2,119.41 83,126.65 83,126.65 Z m -48.18,9.49 c 0,0 1.22,17.37 25,14.62 0.04,0 -15.29,-4.56 -25.01,-14.62 z"
       id="path592" /><path
       class="cls-2"
       d="m 90.75,152.9 a 66.35,66.35 0 0 1 11.33,-36.81 c -2.46,1.68 -6.51,1.67 -6.51,1.67 -19.18,0 -25.36,-21.32 -25.36,-29.64 A 97.51,97.51 0 0 1 72,71.22 c -13.55,11.94 -19.71,33 -19.71,45.88 0,12.88 5.09,20 5.09,20 C 29.17,136.81 24.75,114 24.75,114 c -2,12.74 2.29,29.37 2.29,29.37 A 48.07,48.07 0 0 1 13.36,110.24 c 0,-20.52 15.15,-39.7 15.15,-39.7 -1.35,15.56 9.12,29 9.12,29 0,-8.72 7.23,-34.61 35.67,-54.46 C 101.74,25.23 99.19,0 99.19,0 c 8.32,9.52 13.55,26.42 6,40.9 -7.55,14.48 -8.69,31.93 -8.69,31.93 0,0 -2,16.77 11.27,16.77 20.27,0 15.17,-37.29 15.17,-37.29 16.62,11.69 16.69,34.81 16.69,34.81 0,0 2.21,15.28 -20.52,43.25 -24.83,30.55 -19.11,58.55 -19.11,58.55 0,0 -9.25,-14.29 -9.25,-36.02 z M 2,123 c 0,0 -2,8.75 -2,14.79 0,6.04 2.11,33.59 41.66,36.81 0,0 36.91,2.72 51.23,17.31 0,0 -4,-24.14 -28.44,-29.52 C 40.01,157.01 33.87,162.29 13.36,143.57 13.36,143.6 4.56,135.2 2,123 Z"
       id="path594" /></g></svg>
