<svg xmlns="http://www.w3.org/2000/svg" viewBox="0 0 235.67 319.9"><defs><style>.cls-1{fill:#fa8c16;}.cls-2{fill:#1f1f1f;}</style></defs><title>8</title><g id="图层_2" data-name="图层 2"><g id="图层_1-2" data-name="图层 1"><path class="cls-1" d="M7.07,75.25,134.13,1.89a14.17,14.17,0,0,1,14.14,0l80,46.21a14.14,14.14,0,0,1,3,22.23L204.13,97.6A14.14,14.14,0,0,1,187,99.87L148.42,77.58a14.44,14.44,0,0,0-14.44,0L0,155.7V87.5A14.16,14.16,0,0,1,7.07,75.25Z"/><path class="cls-2" d="M228.59,271.63,148.27,318a14.17,14.17,0,0,1-14.14,0L7.07,244.65A14.16,14.16,0,0,1,0,232.4V170.54l65.47-37.95v62a14.16,14.16,0,0,0,7.07,12.25l61.59,35.56a14.17,14.17,0,0,0,14.14,0l39-22.5a14.14,14.14,0,0,1,17.07,2.25l27.21,27.21A14.15,14.15,0,0,1,228.59,271.63Z"/></g></g></svg>