<?xml version="1.0" encoding="UTF-8" standalone="no"?>
<!-- Created with Inkscape (http://www.inkscape.org/) -->

<svg
   width="148.40654mm"
   height="180.96794mm"
   viewBox="0 0 148.40654 180.96794"
   version="1.1"
   id="svg888"
   inkscape:version="1.2.2 (b0a8486541, 2022-12-01)"
   sodipodi:docname="lighthouse.svg"
   xmlns:inkscape="http://www.inkscape.org/namespaces/inkscape"
   xmlns:sodipodi="http://sodipodi.sourceforge.net/DTD/sodipodi-0.dtd"
   xmlns="http://www.w3.org/2000/svg"
   xmlns:svg="http://www.w3.org/2000/svg">
  <sodipodi:namedview
     id="namedview890"
     pagecolor="#ffffff"
     bordercolor="#000000"
     borderopacity="0.25"
     inkscape:showpageshadow="2"
     inkscape:pageopacity="0.0"
     inkscape:pagecheckerboard="0"
     inkscape:deskcolor="#d1d1d1"
     inkscape:document-units="mm"
     showgrid="false"
     inkscape:zoom="0.74653479"
     inkscape:cx="630.915"
     inkscape:cy="383.10338"
     inkscape:window-width="1920"
     inkscape:window-height="1008"
     inkscape:window-x="1360"
     inkscape:window-y="0"
     inkscape:window-maximized="1"
     inkscape:current-layer="layer1" />
  <defs
     id="defs885">
    <linearGradient
       id="paint0_linear_206_33"
       x1="0.0057590501"
       y1="274.155"
       x2="560.89899"
       y2="274.155"
       gradientUnits="userSpaceOnUse"
       gradientTransform="matrix(0.26458333,0,0,0.26458333,-69.241448,47.029155)">
      <stop
         stop-color="#5081C2"
         id="stop26" />
      <stop
         offset="1"
         stop-color="#D23C6E"
         id="stop28" />
    </linearGradient>
  </defs>
  <g
     inkscape:label="Layer 1"
     inkscape:groupmode="layer"
     id="layer1"
     transform="translate(69.241457,-47.029156)">
    <path
       d="m 12.505276,93.525706 c 3.394604,-0.394229 6.49605,0.322263 9.59485,0.555625 L 22.24009,93.290227 C 18.92883,91.533129 15.622861,89.766771 12.304722,88.023696 11.277345,87.48474 10.210016,87.015898 9.1686156,86.504723 8.7979344,86.32269 8.2200844,85.851467 8.1155739,85.942484 c -2.8477103,2.50825 -6.7458165,-0.609071 -9.8562582,2.186252 -2.5233312,2.268008 -6.1023499,3.360208 -9.1339457,5.383212 h 8.8217374 c -3.1223479,2.774156 -4.9979791,6.281473 -9.5977604,6.370108 -5.34961,0.102394 -4.550569,-0.09816 -4.846108,4.690004 -0.119063,1.93172 -0.694796,3.45334 -2.180961,4.82759 -1.8034,1.66581 -1.600729,3.58404 0.288661,5.17313 0.669131,0.56224 1.507596,1.01494 1.011237,1.9857 -0.514614,1.00568 -1.521354,0.41989 -2.264568,0.31697 -12.193323,-1.67719 -24.384106,-3.3737 -36.567904,-5.12604 -6.188604,-0.89111 -6.237552,-0.95223 -6.803734,5.12842 -0.43807,4.69979 0,9.3853 0.463656,14.07054 0.184071,1.85738 1.206977,1.84335 2.586355,1.61925 12.854887,-2.10449 25.71451,-4.17195 38.564793,-6.29311 4.119563,-0.67919 4.093898,-0.73501 4.326732,3.46048 0.186531,3.3528 0.528637,6.69899 0.601133,10.05179 0.04419,2.11852 0.6477,3.26919 2.984764,3.26919 0.833967,0 2.386013,-0.41566 2.488671,0.94007 0.116152,1.54728 -0.200289,3.18293 -0.629444,4.69291 -0.195791,0.69506 -1.211527,0.27517 -1.840706,0.18653 -1.370012,-0.18891 -1.858962,0.32676 -1.584325,1.68698 0.363538,1.80817 0.645319,3.63511 0.999596,5.44381 1.090613,5.54857 0.88556,11.22098 -0.680244,18.07157 -0.901964,0.13097 -0.622035,-1.7362 -1.526116,-1.10093 -1.011238,0.70881 -1.770857,1.89917 -1.8923,3.15198 -0.07911,0.81677 0.139964,1.85737 1.099873,2.35426 0.594254,0.30824 1.840706,0.0471 1.552045,1.12712 -0.256645,0.96124 -1.346993,0.0979 -1.975908,0.35005 -1.444889,0.58102 -2.9337,1.11522 -4.315354,1.78064 -1.551781,0.74639 -1.27,2.06217 0.440267,2.79718 1.230048,0.52996 2.47015,1.06415 3.751262,1.44462 1.079236,0.31988 1.398058,0.80751 1.318948,1.97618 -0.321469,4.76488 -0.300567,4.84399 -4.7879,3.09642 -19.062435,-7.42474 -33.068312,-20.35387 -41.552018,-39.01361 -13.463032,-29.61984 -5.925323,-64.62686 18.339805,-86.11944 7.915063,-7.009421 16.860096,-12.280503 26.968238,-15.302177 22.0747164,-6.59638 43.271016,-4.300363 62.517337,8.512095 24.369712,16.221366 35.537774,39.487237 33.780941,68.773432 -0.517525,8.61246 -2.735527,16.91905 -6.568281,24.67028 -2.992173,6.05288 -6.503194,11.73454 -10.948988,16.97541 -8.600545,10.14306 -19.12276,17.17807 -31.38117,21.91967 -1.849967,0.71358 -2.443956,0.63923 -2.840037,-1.59147 -0.501121,-2.80485 0.256116,-4.22831 2.954337,-4.79055 0.565944,-0.1188 1.116012,-0.37333 1.635654,-0.64135 0.566208,-0.29448 1.465527,-0.43656 1.365515,-1.25809 -0.100542,-0.81889 -0.545307,-1.82669 -1.470554,-1.81266 -1.817423,0.0254 -2.991644,-1.99258 -4.932627,-1.39568 -0.361421,0.11192 -0.696648,-0.24051 -0.631561,-0.57388 0.04895,-0.25665 0.393965,-0.61119 0.6477,-0.64664 1.659202,-0.23522 2.279121,-1.77324 1.859756,-2.71357 -0.556948,-1.2483 -0.410104,-3.60257 -2.987145,-3.27104 -0.676011,0.0862 -0.550069,-0.85408 -0.615421,-1.32795 -0.908579,-6.63601 -2.092325,-13.27467 0.02117,-19.9173 0.498475,-1.56581 0.74295,-2.90513 -1.852612,-2.75114 -1.656292,0.0979 -1.020498,-1.75233 -1.31154,-2.75563 -0.598752,-2.06058 0.06059,-3.22924 2.369609,-3.08716 1.596231,0.0982 2.115343,-0.70935 2.269331,-2.24922 0.424127,-4.26324 0.827087,-8.52409 0.780521,-12.80769 -0.01852,-1.6338 0.56171,-2.03041 2.094971,-1.77588 9.615751,1.60284 19.271456,2.99164 28.85043,4.79266 4.170892,0.78422 8.407136,1.02923 12.542838,1.94839 1.146175,0.25427 1.670579,-0.14684 1.849966,-1.34408 0.941388,-6.27195 0.873655,-12.54178 0.20029,-18.83013 -0.272256,-2.55932 -2.104231,-1.69836 -3.390106,-1.53062 -7.146131,0.93821 -14.274006,2.00184 -21.408496,3.0144 -6.139656,0.87048 -12.279312,1.74598 -18.423731,2.57863 -0.733954,0.10028 -1.73355,0.76782 -2.176198,-0.39661 -0.361156,-0.94747 0.554832,-1.23666 1.141942,-1.68037 1.684337,-1.27132 2.264569,-3.39699 0.838729,-4.56856 -2.768071,-2.27489 -2.651919,-5.23822 -2.94296,-8.16187 -0.156104,-1.5539 -0.915988,-2.116399 -2.269596,-1.957914 -5.293519,0.615954 -8.525669,-2.566194 -11.752527,-6.44234 z m 14.331685,-26.8451 c -0.323585,-1.057011 0.06562,-2.195672 -0.514614,-3.262048 -0.664369,-1.217957 -1.854994,-0.839999 -2.807494,-1.159669 -0.342635,-0.114326 -0.74586,0.182007 -0.613304,0.527367 0.591873,1.542336 1.06045,3.194341 1.976437,4.531387 0.770731,1.124664 0.922338,-1.542362 1.989667,-0.667332 -0.61304,1.65899 -0.132821,2.265653 1.630892,1.77329 0.633677,-0.177297 1.318947,-0.160999 1.978289,-0.256619 3.732742,-0.536681 7.463102,-1.092015 11.505671,-2.186385 -5.501481,-2.151327 -10.408444,-2.090658 -15.145544,0.700009 z m -88.315534,40.425374 c 0.636138,-0.30084 1.146439,-0.42916 1.514554,-0.73052 7.926811,-6.495785 16.363924,-12.310797 24.57495,-18.423995 3.627966,-2.701925 4.217458,-4.963054 1.551781,-8.60769 -1.73355,-2.368285 -3.557852,-4.680743 -5.1562,-7.140098 -1.030023,-1.584325 -1.715029,-1.512041 -3.001169,-0.251989 -8.122549,7.940304 -14.136396,17.213156 -17.65247,28.028 -0.726996,2.233352 -2.08071,4.347372 -1.831446,7.126292 z M 71.522969,105.3629 c -0.03043,-0.10742 -0.100013,-0.34766 -0.163248,-0.59029 -3.254904,-12.770374 -9.68375,-23.671737 -19.139164,-32.825632 -1.1811,-1.143291 -1.807898,-1.00801 -2.68605,0.287046 -1.743075,2.566591 -3.623469,5.039916 -5.450152,7.548431 -2.006071,2.753254 -1.521619,5.635095 1.220787,7.699904 8.331994,6.265333 16.64626,12.556071 24.971375,18.828011 0.230452,0.17489 0.416983,0.5506 0.833967,0.27517 0.410104,-0.2704 0.498475,-0.64135 0.412485,-1.22264 z m -132.710262,30.94964 c -0.03495,0.23336 -0.146765,0.49 -0.09787,0.70723 2.791434,12.40366 8.763344,23.06505 17.556903,32.19079 0.815552,0.84693 1.316355,0.64611 2.013268,-0.11906 2.758546,-3.04271 5.599112,-6.0108 8.336756,-9.0723 1.379538,-1.53961 1.109133,-3.51605 -0.521758,-4.69 -8.425656,-6.05499 -16.855678,-12.10522 -25.299749,-18.13481 -0.568537,-0.40587 -1.048518,-1.1385 -1.98755,-0.88185 z m 132.861604,0.0209 c -1.160198,-0.0487 -1.703388,0.69082 -2.355586,1.15755 -8.064235,5.76315 -16.112331,11.54986 -24.162808,17.33206 -2.418556,1.73593 -2.5654,3.46022 -0.619654,5.77956 2.304521,2.74637 5.114396,5.04957 7.069402,8.10392 0.953029,1.49093 1.826683,1.16417 2.926556,0 6.754813,-7.17021 11.820261,-15.36065 15.077546,-24.6634 0.873919,-2.49899 1.724289,-5.01465 2.066925,-7.70493 z m -9.72529,3.74544 c -9.765506,4.02934 -19.337602,6.12696 -29.146764,7.85363 0.976312,2.14233 3.387725,2.89136 3.376348,5.35305 -1.442773,-1.10596 -2.631017,-2.44555 -3.849688,-3.7592 -0.270139,-0.29158 -0.619654,-0.62998 -1.080823,-0.43842 -0.49186,0.20479 -0.400843,0.71623 -0.359039,1.09432 0.244739,2.22356 -0.400579,4.32832 -0.817563,6.45848 -0.522287,2.6625 -1.111779,5.31071 -1.808162,8.61245 2.294731,-1.63777 4.002881,-2.96333 5.815542,-4.12565 2.719387,-1.74043 4.997979,-3.58616 2.922058,-7.47104 3.205956,2.30558 5.743575,1.50733 8.455818,-0.63685 3.998119,-3.15965 8.285692,-5.95048 12.395994,-8.96726 1.353608,-0.99404 2.894013,-1.84811 4.096279,-3.97351 z M -50.37118,109.5629 c 8.714396,1.2483 17.431094,2.49184 26.143029,3.74755 1.102255,0.15875 1.227932,-0.50667 1.274498,-1.3462 0.177271,-3.08927 0.363802,-6.18146 0.582613,-9.26861 0.08149,-1.14777 -0.05821,-1.54438 -1.484313,-1.34356 -6.892131,0.96573 -13.591116,2.65748 -20.15482,4.92813 -2.185617,0.75592 -4.39211,1.48405 -6.361007,3.28269 z m 111.045439,-0.0696 c -0.0048,-0.22648 -0.0095,-0.45297 -0.01402,-0.67945 -8.651611,-3.95949 -17.79905,-6.18781 -27.170856,-7.6417 -1.258094,-0.19579 -1.123156,0.66993 -1.069181,1.42373 0.207168,3.01201 0.458787,6.02191 0.647435,9.03684 0.08837,1.42081 0.578115,1.79679 2.083329,1.48643 2.697956,-0.55801 5.468408,-0.76756 8.203935,-1.15252 5.773738,-0.81466 11.54774,-1.64783 17.319361,-2.47333 z m -83.401958,26.29429 c -0.07435,-1.50257 -0.216429,-3.00805 -0.20267,-4.51061 0.01191,-1.35785 -0.507736,-1.78462 -1.826684,-1.50707 -1.714764,0.3593 -3.450696,0.62045 -5.181864,0.90514 -6.09309,1.00383 -12.186179,1.9931 -18.276993,3.00566 -0.517261,0.086 -1.295533,-0.10054 -1.300163,0.79296 -0.0023,0.52732 0.475324,0.50641 0.876062,0.64638 6.701181,2.3286 13.449115,4.47569 20.441523,5.79358 6.134894,1.15543 6.123252,1.21576 5.470789,-5.12604 z m 82.385958,-1.4724 c -0.312473,-0.23575 -0.487098,-0.47361 -0.694532,-0.50853 -8.085137,-1.33006 -16.175037,-2.62255 -24.255676,-3.9714 -1.148292,-0.19156 -1.31154,0.30321 -1.600729,1.26921 -0.827088,2.77653 -0.566209,5.58826 -0.698765,8.40237 -0.09578,2.0021 0.386821,2.48735 2.332302,2.1373 6.344708,-1.14564 12.628827,-2.52227 18.72906,-4.63391 2.087563,-0.72099 4.282281,-1.26206 6.18834,-2.69504 z M 32.950953,95.091775 c 5.352521,0.968375 10.585714,1.924579 15.735035,3.287184 4.939771,1.307041 9.70915,3.180551 14.623256,4.641321 -6.363229,-5.249863 -12.86166,-10.094119 -19.381258,-14.907684 -2.250546,-1.661583 -5.027877,-1.201737 -6.643158,1.021821 -1.402556,1.931987 -2.807494,3.861858 -4.333875,5.957358 z m -85.365616,6.908805 c 1.034521,0.49715 1.586733,0.47386 2.152968,0.24288 8.416263,-3.44646 17.20043,-5.511533 26.154724,-6.909062 1.558924,-0.242623 1.28852,-0.894027 0.591872,-1.82245 -1.106752,-1.474787 -2.1717,-2.982119 -3.262047,-4.470664 -1.230313,-1.677723 -4.664605,-2.422261 -6.384396,-1.227402 -6.440223,4.475162 -12.209383,9.853877 -19.253121,14.186698 z m 37.287914,-8.299984 c 5.7388127,-2.988733 11.0815439,-5.681398 16.3216168,-8.558477 1.3305895,-0.73025 1.4705541,-2.008981 -0.1534584,-2.872317 -3.6909374,-1.960033 -7.3935165,-3.896783 -11.0796914,-5.866077 -0.682625,-0.364066 -1.262856,-0.578643 -1.544373,0.389732 -1.561306,5.373687 -2.868612,10.795793 -3.544094,16.907139 z M 25.234115,92.013877 C 24.439572,87.405365 23.572797,83.051382 22.356772,78.772011 21.517513,75.8227 21.445547,75.713163 18.768493,77.334794 c -2.999052,1.817688 -6.067425,3.483504 -9.2456003,4.949031 -0.6807729,0.314855 -1.5311438,0.459582 -1.5753292,1.306513 -0.051594,0.945092 0.7244292,1.353344 1.5120938,1.775883 3.4996437,1.873515 7.3329267,3.091656 10.5761897,5.485606 1.057539,0.779463 2.309283,1.32768 3.532452,1.836473 0.757237,0.314854 1.729052,0.545836 1.665816,-0.674423 z m -75.721817,49.520473 c 0.365786,0.27808 0.685006,0.51832 1.001924,0.76121 4.564565,3.49753 9.46703,6.52621 13.856732,10.28964 1.680104,1.43987 3.585898,3.50732 6.316927,2.26113 2.173816,-0.99166 3.404129,-3.11282 5.049043,-4.73419 0.549805,-0.54372 1.584325,-1.04748 1.251215,-1.96956 -0.277283,-0.76993 -1.321065,-0.51091 -2.017713,-0.63208 -7.905749,-1.38139 -15.72551,-3.09166 -23.237613,-6.00631 -0.664024,-0.25665 -1.346755,-0.63235 -2.220515,0.0302 z M 48.734671,71.095311 c -7.068872,1.155038 -13.863637,2.391701 -21.014266,3.402092 2.674673,2.977356 6.267979,4.05765 8.695531,6.703747 1.684867,1.836209 3.989123,0.807244 5.058833,-0.375708 2.697957,-2.991379 4.874154,-6.456362 7.259902,-9.730131 z m -66.736911,3.989996 c -6.684963,-1.27635 -13.031788,-2.543281 -20.108333,-4.08567 2.649272,3.651753 4.74636,6.848449 7.19746,9.74643 0.848254,1.000919 2.677319,1.71741 4.063735,0.795602 3.036094,-2.023004 5.906559,-4.291012 8.847138,-6.456362 z m 48.045687,90.583013 c 0.493712,0.41566 0.601133,0.58817 0.731308,0.60669 6.321425,0.90355 12.561358,2.20054 18.694135,3.98806 0.451908,0.13071 0.780521,0.14923 1.109398,-0.20081 0.549804,-0.58579 -0.07964,-0.9406 -0.333375,-1.22264 -2.111375,-2.36829 -4.268787,-4.69715 -6.421437,-7.02813 -0.713052,-0.77232 -5.676107,-1.88066 -6.524625,-1.30916 -2.406915,1.61925 -4.734719,3.35809 -7.255404,5.16599 z M -7.1418884,75.61024 c -0.044185,0.214842 -0.090752,0.4318 -0.135202,0.646377 2.4349603,1.273969 4.8815624,2.520156 7.29985403,3.826669 3.70945827,2.002102 7.32842907,2.543439 11.12387737,0.03757 2.069041,-1.364986 4.436268,-2.27039 6.63866,-3.4417 0.500592,-0.266171 1.336939,-0.315119 1.269471,-1.393032 -8.737336,0.683684 -17.4707021,0.431536 -26.1966604,0.324116 z m -12.1184456,90.11682 c -2.68896,-1.91135 -4.81621,-3.93171 -7.344304,-5.03079 -1.54014,-0.66966 -4.275667,-0.62997 -5.461794,0.33602 -2.956719,2.40771 -5.335852,5.52741 -7.947818,8.36004 6.829424,-1.61475 13.661231,-1.90606 20.753916,-3.66527 z M 27.51059,76.361657 c 1.96903,6.125104 2.938198,11.83005 4.135967,18.263129 2.120371,-2.916502 3.900487,-5.119159 5.384535,-7.506229 C 37.77219,85.92608 37.939936,84.1412 36.858584,83.142398 34.195553,80.680715 31.243332,78.548173 27.51059,76.361657 Z M 17.29344,69.501646 C 12.787057,65.427592 7.6260948,64.001937 2.2995032,64.785924 c -3.11996665,0.457333 -5.974027,2.737009 -8.9471499,4.197721 8.0642353,0.94734 15.8511873,0.973005 23.9410867,0.518001 z m -35.025541,7.126182 c -3.13346,2.326216 -5.608373,4.176712 -8.096779,6.00366 -0.580231,0.427037 -0.852752,0.917046 -0.917839,1.668198 -0.363538,4.277254 3.385343,6.03885 5.251714,9.037108 1.132417,-5.4483 2.253192,-10.738114 3.762904,-16.708966 z M 4.6434469,53.04914 c -1.8102791,0.098 -3.5996562,1.127046 -5.19562285,2.538704 -1.98305205,1.754716 -1.95050835,1.943708 0.47492708,3.173386 1.46076457,0.739669 2.85432497,1.752335 4.64423117,0.681328 0.3791479,-0.226324 1.1295063,0.06533 1.6703146,0.235665 1.2649729,0.401346 5.1331811,-0.686039 5.8554941,-1.663674 0.309562,-0.420026 0.274902,-0.800365 -0.04233,-1.112996 C 10.07693,54.957844 8.0684781,53.060808 4.6434469,53.04914 Z m -25.9823479,96.53093 c -2.255308,1.49119 -4.058973,3.12208 -5.412581,5.06121 -1.039283,1.48855 -0.652462,3.56764 0.645319,4.6482 2.267214,1.88516 4.911725,3.31523 7.752027,5.16784 -1.03214,-5.14482 -1.98755,-9.90256 -2.984765,-14.87725 z m -13.292931,25.18145 c -0.03731,0.24051 -0.07223,0.47837 -0.109537,0.71887 3.364706,0.65776 6.727031,1.31842 10.093854,1.96692 0.149225,0.028 0.37756,-0.009 0.473075,-0.10954 1.188244,-1.23666 2.556139,-1.89918 4.315354,-2.1889 1.048279,-0.17251 1.917171,-1.71741 1.749954,-2.73923 -0.181769,-1.10146 -1.563423,-0.45297 -2.344208,-0.34078 -4.764881,0.69082 -9.527646,1.41896 -14.178492,2.69266 z M -7.7385238,54.425847 c -4.4243622,0.564673 -8.0920162,1.87833 -11.7477642,3.227043 -0.547688,0.202962 -1.551781,0.308002 -1.463411,0.861007 0.13044,0.82132 0.547688,1.848009 1.642534,1.941327 0.929746,0.07937 1.754452,0.604335 2.572808,0.702337 1.949715,0.231008 4.128294,0.196003 5.54064,-1.351016 1.3091578,-1.434994 2.1507974,-3.297025 3.4551932,-5.380698 z M 18.357859,54.73152 c 1.740694,2.454672 2.034646,6.118039 6.25184,6.484381 2.274358,0.198332 3.783806,-1.295003 5.768975,-1.638008 0.832114,-0.144675 0.86016,-1.36271 -0.28628,-1.799008 -3.728243,-1.416368 -7.493529,-2.718382 -11.734535,-3.047365 z m 26.630312,120.29141 c -5.745956,-1.50733 -11.030214,-2.51989 -16.617949,-3.07552 0.874183,3.94811 4.702175,3.51208 6.6548,5.48137 0.125941,0.12833 0.503502,0.0953 0.727075,0.0257 2.868083,-0.90752 5.964766,-0.88212 9.236074,-2.43152 z M -8.4724779,68.281308 c 2.5844499,-1.25304 4.8095957,-2.200381 6.8968936,-3.388042 1.28402293,-0.73033 3.5231917,-0.700008 3.5139312,-2.664672 -0.00926,-1.939025 -2.29261452,-1.806046 -3.4930291,-2.697374 -1.3440833,-0.99867 -2.2436666,-0.473657 -3.0077833,0.828331 -1.3887979,2.363708 -2.8238979,4.697095 -3.9100124,7.921757 z M 18.325315,67.940631 C 17.89669,65.695932 17.046584,64.3496 16.284584,62.977603 14.578816,59.906902 12.241486,59.255101 9.273126,61.022226 c -0.071967,0.04204 -0.1510771,0.07001 -0.2259542,0.10967 -1.2300479,0.662702 -1.4583833,1.414039 -0.076729,2.121033 2.9498392,1.512014 5.9277252,2.975001 9.3548722,4.687702 z m -50.839157,-1.77337 c 5.741458,1.059339 10.695252,2.181675 15.942204,2.433717 -1.819804,-3.749702 -6.81064,-5.653749 -15.942204,-2.433717 z M -33.765057,177.088 c -0.08837,0.19844 -0.174625,0.39661 -0.26326,0.59505 2.684198,1.57004 5.398823,3.08927 8.038835,4.72969 1.726406,1.07342 2.250811,-0.24289 2.723621,-1.32794 0.528902,-1.21576 -0.146579,-2.20504 -1.332706,-2.44528 -3.036094,-0.61092 -6.107113,-1.04511 -9.16649,-1.55152 z m 77.744372,-0.1352 c -2.987146,0.54583 -5.98805,1.01706 -8.951912,1.67031 -1.186127,0.26141 -1.791759,1.26498 -1.291167,2.49 0.461698,1.12712 1.125538,2.06719 2.642658,1.21999 2.665413,-1.48405 5.370513,-2.9001 7.600421,-5.3803 z M -31.560813,64.165265 c 2.861469,-0.370999 5.561806,-1.187662 8.439414,-1.178375 1.162844,0.0024 1.726671,-1.45833 1.439863,-2.680996 -0.309563,-1.325378 -1.209146,-1.276377 -2.299494,-0.73033 -2.637631,1.320668 -5.251979,2.669329 -7.579783,4.589701 z m 70.640309,-0.05834 c 0.827088,0.08168 1.374246,0.0093 1.560778,-0.527314 0.230981,-0.660347 -0.442648,-0.791052 -0.829469,-1.00338 -1.817423,-1.005628 -3.657865,-1.969346 -5.485077,-2.958676 -0.931598,-0.504005 -1.910292,-0.975334 -2.457979,0.401346 -0.510382,1.281033 -0.01164,2.228321 1.300427,2.678695 2.020093,0.692996 4.238095,0.53668 5.91132,1.409329 z m -51.408011,-2.081371 c -1.773238,0.68371 -3.492765,-0.04429 -4.212432,1.754717 -0.687652,1.715002 0.622036,2.643663 1.672696,4.165044 0.887413,-2.067375 1.607609,-3.745045 2.539736,-5.919761 z"
       fill="url(#paint0_linear_206_33)"
       id="path2"
       style="fill:url(#paint0_linear_206_33);stroke-width:0.264583" />
    <path
       d="m 22.226861,227.73295 c 0.414602,-1.79916 0.470429,-3.36232 0.326232,-4.92812 -0.06086,-0.65538 0.09075,-1.51871 -0.529167,-1.85711 -0.729456,-0.399 -1.125538,0.49688 -1.616869,0.85857 -4.038071,2.96095 -8.584141,4.68524 -13.5657164,5.901 0.1912938,-2.45454 0.6106584,-4.69 -0.3704166,-7.12152 -4.1195625,3.39989 -8.7259583,5.43216 -13.9594165,6.81804 0.3473979,-2.33336 0.5569479,-4.46828 -0.3960813,-6.76433 -4.5529502,3.65865 -9.7509542,5.76341 -15.3130252,7.15168 -1.840706,0.45958 -2.097087,0.24712 -1.789377,-1.64253 0.762,-4.67148 2.956984,-7.98962 7.747529,-9.08156 1.395677,-0.31723 1.349111,-1.29725 1.470025,-2.26324 1.84785,-14.89843 3.683794,-29.80161 5.522119,-44.70268 1.284023,-10.40421 2.544498,-20.81292 3.8682084,-31.21316 0.1537229,-1.22026 0.2397125,-1.81028 -1.3446125,-2.20504 -1.7732375,-0.44079 -3.3390419,-1.71503 -5.6877479,-3.00514 4.4529375,-0.86095 3.9864771,-3.69834 3.9470542,-6.39577 -0.053446,-3.60733 -0.027781,-7.21677 -0.00926,-10.82675 0.014023,-2.59715 -1.4885452,-4.35636 -4.1312032,-4.70879 -0.566209,-0.0749 -1.151202,-0.0116 -1.716882,-0.0116 -0.156368,-0.98928 0.603515,-1.26444 1.050661,-1.68698 6.0978513,-5.7539 12.2094617,-11.494032 18.3443553,-17.208503 0.6336771,-0.590285 1.1279188,-1.766358 2.3976542,-0.562239 6.6780835,6.339946 13.4209885,12.611632 20.1339975,18.897602 -0.421745,0.8755 -1.081088,0.48762 -1.58697,0.5416 -2.989264,0.31485 -4.504002,1.9648 -4.496858,4.92575 0.0069,3.60944 0.03942,7.21677 -0.0095,10.82675 -0.03704,2.63419 -0.465667,5.40596 3.509168,5.95471 -1.418696,1.66105 -2.938198,2.51275 -4.419864,2.97021 -1.82245,0.56251 -1.745192,1.55655 -1.565804,2.9681 3.159654,25.1325 6.309783,50.26527 9.399058,75.40704 0.181769,1.48167 0.55245,2.36829 2.160058,2.41697 0.39608,0.0116 0.803803,0.23574 1.176601,0.42042 1.913202,0.95674 4.17539,2.19816 4.264291,4.23942 0.06747,1.61237 -2.514336,2.1 -4.042834,2.86068 -2.686314,1.33932 -5.522383,2.29155 -8.75612,3.02656 z M 5.7790386,214.14607 c 4.9350084,0 9.8747794,-0.0889 14.8074064,0.0439 1.894152,0.0519 2.236787,-0.59505 1.975908,-2.29367 -0.49874,-3.22712 -0.890323,-6.4725 -1.221317,-9.72053 -0.155575,-1.5285 -0.596371,-1.9087 -2.199481,-1.47002 -8.697912,2.38469 -17.4029685,4.75509 -26.1731121,6.85297 -2.7167416,0.64902 -3.8330189,1.75498 -3.9729829,4.57782 -0.09313,1.87404 0.456935,2.05132 1.9759079,2.03041 4.9350083,-0.0632 9.87213322,-0.0209 14.8076707,-0.0209 z M -8.9608988,195.45326 c -0.5826125,1.69413 0.6267979,1.54966 2.4696208,1.04087 6.03276455,-1.66846 12.1094499,-3.18267 18.146448,-4.84664 2.628635,-0.72337 6.29576,-0.46434 7.589043,-2.48735 1.293019,-2.02273 -0.388937,-5.30357 -0.540543,-8.04994 -0.08599,-1.55417 -0.458788,-1.95289 -2.106613,-1.47929 -5.295635,1.51659 -10.6669414,2.76728 -15.9771288,4.23492 -2.720975,0.75142 -6.3724895,0.52494 -7.9033686,2.52968 -1.5118292,1.97856 -1.11125,5.42264 -1.6774584,9.05775 z m 2.8728458,-22.46762 c -0.4519083,1.78937 0.6966479,1.42531 1.8385896,1.12448 5.6522937,-1.49331 11.3029999,-2.98874 16.9603204,-4.45903 4.315354,-1.11998 4.322498,-1.10596 3.830373,-5.66076 -0.125942,-1.16443 -0.379677,-2.32621 -0.396081,-3.49038 -0.0209,-1.45389 -0.659077,-1.64306 -1.896798,-1.30466 -3.704431,1.01256 -7.4324104,1.94839 -11.1442499,2.94005 -2.5794229,0.68818 -5.7853791,0.71887 -7.5469749,2.32648 -1.8923,1.72429 -0.981075,5.19642 -1.5610417,7.86077 -0.034925,0.16378 -0.042069,0.33152 -0.084138,0.66305 z m 20.539075,-26.12205 c -0.223573,-1.82933 -0.491331,-3.65416 -0.659077,-5.48825 -0.109273,-1.20359 -0.66384,-1.5375 -1.812661,-1.33906 -3.8211121,0.6604 -7.5191933,1.66132 -10.73441,3.94123 -2.4770291,1.75684 -4.2013187,4.00844 -4.6185666,7.15857 -0.1770062,1.3298 0.093663,1.67058 1.4052021,1.31577 5.0027416,-1.34884 10.0168603,-2.64345 15.0285975,-3.95975 0.839259,-0.21934 1.680104,-0.44529 1.390915,-1.62851 z M 5.8954552,96.038719 c 0,3.968751 0.00688,7.137661 -0.00476,10.303671 -0.00238,0.80063 -0.014023,1.49807 1.1186583,1.48881 3.6160605,-0.0304 7.2297395,-0.0116 11.5194285,-0.0116 -4.391819,-4.09734 -8.250767,-7.69065 -12.6333243,-11.780841 z M 16.851322,124.02264 c 0,-1.67799 0.01402,-3.35809 -0.0045,-5.03555 -0.01852,-1.74757 -0.773642,-3.05673 -2.633398,-2.97947 -1.695979,0.0696 -2.374106,1.31312 -2.360348,2.97947 0.02567,3.27104 0.08202,6.54738 -0.0254,9.81604 -0.05345,1.64544 0.487098,2.08148 2.129631,2.17038 2.304521,0.12356 3.227123,-0.56965 2.926556,-2.92867 -0.167745,-1.32028 -0.03016,-2.67812 -0.03254,-4.0222 z m -17.55907295,0.15848 c 0,-1.75233 0.0256646,-3.50228 -0.006879,-5.25488 -0.0330729,-1.74308 -0.84851875,-3.00752 -2.67758325,-2.91413 -1.6750771,0.086 -2.3439437,1.31101 -2.3254229,2.97736 0.039423,3.25252 0.1098021,6.51007 -0.027781,9.75572 -0.07911,1.82933 0.6357937,2.13942 2.2952603,2.22832 2.2132396,0.11906 3.04747079,-0.56727 2.77494996,-2.79321 -0.16086666,-1.31339 -0.0301625,-2.66435 -0.0325441,-3.99918 z m 8.72357695,-0.0749 c 0,-1.67984 -0.023283,-3.35756 0.00688,-5.03767 0.030427,-1.76874 -0.6662208,-3.06096 -2.5280937,-3.05885 -1.7219083,0.002 -2.4579792,1.25307 -2.4672396,2.88846 -0.021431,3.44196 -0.011642,6.88366 -0.00476,10.32536 0,0.7583 -0.011906,1.44675 1.0390188,1.68699 2.9638624,0.67654 3.9541978,-0.0376 3.9565791,-3.02869 0,-1.25994 -0.00238,-2.51513 -0.00238,-3.7756 z"
       fill="#f5f4f4"
       id="path4"
       style="stroke-width:0.264583" />
  </g>
</svg>
