<?xml version="1.0" encoding="UTF-8" standalone="no"?>
<!-- Created with Inkscape (http://www.inkscape.org/) -->

<svg
   width="22.735645mm"
   height="37.602581mm"
   viewBox="0 0 22.735645 37.602581"
   version="1.1"
   id="svg1261"
   inkscape:version="1.2.2 (b0a8486541, 2022-12-01)"
   sodipodi:docname="nftStorage.svg"
   xmlns:inkscape="http://www.inkscape.org/namespaces/inkscape"
   xmlns:sodipodi="http://sodipodi.sourceforge.net/DTD/sodipodi-0.dtd"
   xmlns="http://www.w3.org/2000/svg"
   xmlns:svg="http://www.w3.org/2000/svg">
  <sodipodi:namedview
     id="namedview1263"
     pagecolor="#ffffff"
     bordercolor="#000000"
     borderopacity="0.25"
     inkscape:showpageshadow="2"
     inkscape:pageopacity="0.0"
     inkscape:pagecheckerboard="0"
     inkscape:deskcolor="#d1d1d1"
     inkscape:document-units="mm"
     showgrid="false"
     inkscape:zoom="0.74653479"
     inkscape:cx="263.88589"
     inkscape:cy="-250.49067"
     inkscape:window-width="1920"
     inkscape:window-height="1008"
     inkscape:window-x="1360"
     inkscape:window-y="0"
     inkscape:window-maximized="1"
     inkscape:current-layer="layer1" />
  <defs
     id="defs1258" />
  <g
     inkscape:label="Layer 1"
     inkscape:groupmode="layer"
     id="layer1"
     transform="translate(-35.060578,-214.75838)">
    <path
       class="f"
       d="m 54.983703,249.59342 c 0.664104,-0.6641 1.201208,-1.43933 1.600729,-2.30452 0.391583,-0.85725 0.592667,-1.77271 0.592667,-2.72785 v -0.81757 c -0.01058,0.0212 -0.01852,0.0423 -0.02646,0.0635 -0.428625,0.93134 -1.008062,1.76742 -1.725083,2.48444 -0.719667,0.71702 -1.55575,1.29117 -2.487083,1.70392 -0.936625,0.41539 -1.942042,0.62441 -2.9845,0.62441 H 42.90812 c -1.042459,0 -2.047875,-0.21166 -2.9845,-0.62441 -0.931334,-0.41275 -1.770063,-0.9869 -2.487084,-1.70392 -0.71702,-0.71702 -1.299104,-1.5531 -1.725083,-2.48444 -0.01058,-0.0212 -0.01852,-0.0423 -0.02646,-0.0635 v 0.81757 c 0,0.95514 0.198437,1.87325 0.592667,2.72785 0.396875,0.86519 0.933979,1.63777 1.600729,2.30187 0.664104,0.66411 1.436687,1.19328 2.299229,1.57692 0.85725,0.37836 1.778,0.5715 2.733146,0.5715 h 7.045854 c 0.955145,0 1.875895,-0.19314 2.733145,-0.5715 0.862542,-0.381 1.635125,-0.91281 2.29923,-1.57427 z"
       id="path52"
       style="fill:#f5c32c;stroke-width:0.264583" />
    <path
       d="m 55.491703,217.17932 c -0.703792,-0.71702 -1.539875,-1.30704 -2.484438,-1.7489 -0.9525,-0.4445 -1.981729,-0.67204 -3.055937,-0.67204 h -7.045854 c -1.074208,0 -2.103438,0.2249 -3.055938,0.67204 -0.944562,0.44186 -1.780645,1.02923 -2.484437,1.7489 -0.701146,0.71702 -1.267354,1.5531 -1.680104,2.48443 -0.415396,0.93663 -0.624417,1.9103 -0.624417,2.89455 v 22.00275 c 0,1.0451 0.216959,2.05052 0.648229,2.98714 0.42598,0.93133 1.008063,1.76742 1.725084,2.48444 0.71702,0.71702 1.553104,1.29117 2.487083,1.70392 0.936625,0.41539 1.942042,0.62441 2.9845,0.62441 h 7.045854 c 1.042458,0 2.047875,-0.21166 2.9845,-0.62441 0.933979,-0.41275 1.770062,-0.9869 2.487083,-1.70392 0.717021,-0.71702 1.296459,-1.55046 1.725084,-2.48444 0.43127,-0.93927 0.648229,-1.94469 0.648229,-2.98714 V 222.5583 c 0,-0.98425 -0.211667,-1.95792 -0.624417,-2.89719 -0.41275,-0.93133 -0.976312,-1.76477 -1.680104,-2.48444 z m -12.586229,34.56252 c -0.955146,0 -1.875896,-0.19315 -2.733146,-0.5715 -0.862542,-0.381 -1.637771,-0.91282 -2.299229,-1.57692 -0.664104,-0.6641 -1.203854,-1.43933 -1.600729,-2.30187 -0.391583,-0.85461 -0.592667,-1.77271 -0.592667,-2.72786 v -0.81756 c 0.01058,0.0212 0.01852,0.0423 0.02646,0.0635 0.425979,0.93133 1.008062,1.76742 1.725083,2.48444 0.717021,0.71702 1.55575,1.29116 2.487083,1.70391 0.936625,0.4154 1.942042,0.62442 2.9845,0.62442 h 7.045854 c 1.042458,0 2.047875,-0.21167 2.9845,-0.62442 0.931333,-0.41275 1.770063,-0.98689 2.487083,-1.70391 0.717021,-0.71702 1.296459,-1.55311 1.725084,-2.48444 0.01058,-0.0212 0.01852,-0.0423 0.02646,-0.0635 v 0.81756 c 0,0.95515 -0.198437,1.87325 -0.592667,2.72786 -0.396875,0.86518 -0.933979,1.64041 -1.600729,2.30452 -0.664104,0.6641 -1.436687,1.19327 -2.299229,1.57427 -0.85725,0.37835 -1.778,0.5715 -2.733146,0.5715 h -7.045854 z m 14.268979,-25.43969 v 14.51504 c 0,0.95515 -0.198438,1.87325 -0.592667,2.72786 -0.396875,0.86518 -0.933979,1.63777 -1.598083,2.30452 -0.664104,0.6641 -1.436688,1.19327 -2.299229,1.57427 -0.85725,0.37835 -1.778,0.5715 -2.733146,0.5715 h -7.045854 c -0.957792,0 -1.875896,-0.19315 -2.733146,-0.5715 -0.862542,-0.381 -1.635125,-0.91282 -2.299229,-1.57427 -0.664104,-0.66411 -1.203854,-1.43934 -1.600729,-2.30452 -0.391583,-0.85461 -0.592667,-1.77271 -0.592667,-2.72786 V 222.5583 c 0,-0.89694 0.193146,-1.78594 0.5715,-2.64319 0.381,-0.86254 0.904875,-1.63777 1.55575,-2.30188 0.650875,-0.6641 1.426104,-1.20914 2.301875,-1.61925 0.870479,-0.40745 1.80975,-0.61383 2.794,-0.61383 h 7.045854 c 0.98425,0 1.923521,0.20638 2.794,0.61383 0.875771,0.41011 1.651,0.95515 2.301875,1.61925 0.650875,0.66411 1.17475,1.43934 1.55575,2.30188 0.378354,0.85725 0.5715,1.74625 0.5715,2.64319 v 3.74385 z"
       id="path94"
       style="stroke-width:0.264583" />
    <path
       d="m 43.024536,226.03757 c 0,1.02393 0.373063,1.74096 0.709084,1.74096 0.336021,0 0.709083,-0.71438 0.709083,-1.74096 0,-1.02659 -0.373062,-1.74096 -0.709083,-1.74096 -0.336021,0 -0.709084,0.71437 -0.709084,1.74096 z"
       id="path116"
       style="stroke-width:0.264583" />
    <path
       d="m 48.46437,226.03757 c 0,1.02393 0.373062,1.74096 0.709083,1.74096 0.336021,0 0.709083,-0.71438 0.709083,-1.74096 0,-1.02659 -0.373062,-1.74096 -0.709083,-1.74096 -0.336021,0 -0.709083,0.71437 -0.709083,1.74096 z"
       id="path118"
       style="stroke-width:0.264583" />
    <path
       d="m 53.443828,230.16242 c 0,3.90525 -3.135313,7.0829 -6.990292,7.0829 -3.854979,0 -6.990291,-3.17765 -6.990291,-7.0829 v -0.13494 h -0.457729 v 0.13494 c 0,4.15925 3.341687,7.54063 7.44802,7.54063 4.106334,0 7.448021,-3.38402 7.448021,-7.54063 v -0.13494 h -0.457729 z"
       id="path120"
       style="stroke-width:0.264583" />
  </g>
</svg>
