<?xml version="1.0" encoding="UTF-8" standalone="no"?>
<!-- Created with Inkscape (http://www.inkscape.org/) -->

<svg
   width="85.219513mm"
   height="125.65136mm"
   viewBox="0 0 85.219513 125.65136"
   version="1.1"
   id="svg6641"
   inkscape:version="1.2.2 (b0a8486541, 2022-12-01)"
   sodipodi:docname="pinata.svg"
   xmlns:inkscape="http://www.inkscape.org/namespaces/inkscape"
   xmlns:sodipodi="http://sodipodi.sourceforge.net/DTD/sodipodi-0.dtd"
   xmlns="http://www.w3.org/2000/svg"
   xmlns:svg="http://www.w3.org/2000/svg">
  <sodipodi:namedview
     id="namedview6643"
     pagecolor="#ffffff"
     bordercolor="#000000"
     borderopacity="0.25"
     inkscape:showpageshadow="2"
     inkscape:pageopacity="0.0"
     inkscape:pagecheckerboard="0"
     inkscape:deskcolor="#d1d1d1"
     inkscape:document-units="mm"
     showgrid="false"
     inkscape:zoom="0.74653479"
     inkscape:cx="212.31428"
     inkscape:cy="211.64452"
     inkscape:window-width="1920"
     inkscape:window-height="1008"
     inkscape:window-x="1360"
     inkscape:window-y="0"
     inkscape:window-maximized="1"
     inkscape:current-layer="layer1" />
  <defs
     id="defs6638" />
  <g
     inkscape:label="Layer 1"
     inkscape:groupmode="layer"
     id="layer1"
     transform="translate(-40.32342,-92.408207)">
    <path
       d="m 73.340772,196.35845 4.2545,8.72596 H 51.729605 l 4.230688,-8.72596 h -4.230688 l 4.312709,-8.89265 h 17.216437 l 4.336521,8.89265 z"
       fill="#ce3f8f"
       id="path6383"
       style="stroke-width:0.264583" />
    <path
       d="m 56.235459,205.08441 h 16.856604 v 4.54818 c 0,4.65138 -3.775604,8.42698 -8.426979,8.42698 -4.651375,0 -8.426979,-3.7756 -8.426979,-8.42698 v -4.54818 z"
       fill="#6d3ac6"
       id="path6385"
       style="stroke-width:0.264583" />
    <path
       d="m 108.90871,196.35845 4.25714,8.72596 H 87.300188 l 4.228042,-8.72596 h -4.228042 l 4.310063,-8.89265 h 17.216439 l 4.33916,8.89265 z"
       fill="#ce3f8f"
       id="path6387"
       style="stroke-width:0.264583" />
    <path
       d="M 91.803397,205.08441 H 108.66 v 4.54818 c 0,4.65138 -3.7756,8.42698 -8.42698,8.42698 -4.651374,0 -8.426978,-3.7756 -8.426978,-8.42698 v -4.54818 z"
       fill="#6d3ac6"
       id="path6389"
       style="stroke-width:0.264583" />
    <path
       d="m 108.29488,177.89318 6.50081,9.57262 H 50.099772 l 6.466417,-9.59114 h -6.466417 l 6.466417,-9.7155 H 52.25348 l 4.312709,-9.68375 17.224374,2.51089 34.504317,-0.0979 4.27566,7.27075 h -4.28889 l 0.0132,0.0185 6.50081,9.69698 h -6.51404 z"
       fill="#ffdd00"
       id="path6391"
       style="stroke-width:0.264583" />
    <path
       d="m 55.171834,170.24937 3.553355,3.33904 6.035145,-5.68854 5.860521,5.81818 5.992813,-5.68854 5.992812,5.68854 5.863167,-5.81818 5.990166,5.68854 6.035147,-5.73352 1.11654,1.11654 3.84704,3.63008 3.57717,-3.32052 1.38377,2.0664 -4.9186,4.9186 -0.0291,-0.0291 -5.06148,-5.01915 -5.99281,5.99281 -5.992813,-5.99281 -5.990166,5.99281 -5.863167,-5.86316 -5.992812,5.69118 -5.818188,-5.7785 -5.992812,5.99282 -5.008563,-4.87627"
       fill="#000000"
       id="path6393"
       style="stroke-width:0.264583" />
    <path
       d="m 56.563543,158.47541 c 0,-2.75167 -0.505354,-6.37911 -1.796521,-8.44815 -1.725083,-2.7596 -4.828646,-4.65666 -10.863792,-4.699 l -0.08731,3.44752 c 2.156354,-0.0873 4.225396,0.12965 5.992812,1.24884 1.508125,0.9472 2.759605,2.50031 3.706813,5.08793 -5.259917,-1.80975 -8.276167,-1.24883 -10.390188,0.12965 -1.121833,0.7329 -1.981729,1.63777 -2.801937,2.62996 l 2.370667,2.19868 c 0.129645,-0.21431 0.301625,-0.38893 0.43127,-0.56091 2.587625,-3.06123 5.561542,-2.97392 8.707438,-1.29381 -6.855354,3.27554 -7.932208,9.05404 -7.58825,13.23445 0.301625,0.0423 3.362854,0 3.362854,0 -0.301625,-4.05341 2.156354,-9.62025 8.1915,-11.25802 l 0.762,-1.71714 z"
       fill="#6d3ac6"
       id="path6395"
       style="stroke-width:0.264583" />
    <path
       d="m 110.41948,160.93339 -36.565417,0.0503 3.227917,-10.01184 h -3.198812 l 3.198812,-8.62012 h 30.12281 l 3.21469,8.6651 h -3.21469 z"
       fill="#1db9d2"
       id="path6397"
       style="stroke-width:0.264583" />
    <path
       d="m 111.76092,142.39668 -38.674148,0.0423 6.323541,-12.97516 h -4.291541 l 6.363229,-12.50157 30.278919,6.6384 z"
       fill="#ffdd00"
       id="path6399"
       style="stroke-width:0.264583" />
    <path
       d="m 111.76092,142.39668 v -18.796 c 0,0 11.13102,2.5056 13.5255,8.70479 0.17198,0.44715 0.24606,0.92869 0.24606,1.40758 0.44979,8.42698 -13.76892,8.68363 -13.76892,8.68363 z"
       fill="#ce3f8f"
       id="path6401"
       style="stroke-width:0.264583" />
    <path
       d="m 102.27031,121.51841 c 10.1309,-14.05202 15.13682,-21.00263 11.12838,-24.407814 -2.62996,-2.241016 -6.49817,-0.346604 -12.27667,3.963454 -0.21431,4.61169 -0.99483,10.94582 -2.460624,19.65325 z"
       fill="#008599"
       id="path6403"
       style="stroke-width:0.264583" />
    <path
       d="m 98.052855,92.541236 c -5.474229,-1.336145 -8.638646,7.434797 -16.568208,24.421044 l 17.647708,3.86821 c 1.465795,-8.70744 2.270125,-15.0786 2.241025,-20.01308 0.21431,-4.958293 -0.64559,-7.63059 -3.320525,-8.276174 z"
       fill="#1db9d2"
       id="path6405"
       style="stroke-width:0.264583" />
    <path
       d="m 100.00019,134.16814 c 2.23996,0 4.05606,-1.81584 4.05606,-4.05607 0,-2.24022 -1.8161,-4.05606 -4.05606,-4.05606 -2.240229,0 -4.056064,1.81584 -4.056064,4.05606 0,2.24023 1.815835,4.05607 4.056064,4.05607 z"
       fill="#ffffff"
       id="path6407"
       style="stroke-width:0.264583" />
    <path
       d="m 100.00019,132.07528 c 1.08426,0 1.96321,-0.87894 1.96321,-1.96321 0,-1.08426 -0.87895,-1.9632 -1.96321,-1.9632 -1.084264,0 -1.96321,0.87894 -1.96321,1.9632 0,1.08427 0.878946,1.96321 1.96321,1.96321 z"
       fill="#000000"
       id="path6409"
       style="stroke-width:0.264583" />
    <path
       d="m 111.76092,141.67437 v 0.72231 h -2.29923 l -4.97681,-2.15371 c -0.38365,-0.15346 -0.889,-0.71437 -0.67998,-1.11919 0.12435,-0.24871 0.62177,-0.54768 1.4261,-0.23283 l 6.52992,2.78077 z"
       fill="#000000"
       id="path6411"
       style="stroke-width:0.264583" />
  </g>
</svg>
