<?xml version="1.0" encoding="UTF-8" standalone="no"?>
<!-- Created with Inkscape (http://www.inkscape.org/) -->

<svg
   width="19.086988mm"
   height="21.165676mm"
   viewBox="0 0 19.086988 21.165676"
   version="1.1"
   id="svg3945"
   inkscape:version="1.2.2 (b0a8486541, 2022-12-01)"
   sodipodi:docname="storacha.svg"
   xmlns:inkscape="http://www.inkscape.org/namespaces/inkscape"
   xmlns:sodipodi="http://sodipodi.sourceforge.net/DTD/sodipodi-0.dtd"
   xmlns="http://www.w3.org/2000/svg"
   xmlns:svg="http://www.w3.org/2000/svg">
  <sodipodi:namedview
     id="namedview3947"
     pagecolor="#ffffff"
     bordercolor="#000000"
     borderopacity="0.25"
     inkscape:showpageshadow="2"
     inkscape:pageopacity="0.0"
     inkscape:pagecheckerboard="0"
     inkscape:deskcolor="#d1d1d1"
     inkscape:document-units="mm"
     showgrid="false"
     inkscape:zoom="5.9722783"
     inkscape:cx="-3.6836863"
     inkscape:cy="40.93915"
     inkscape:window-width="1920"
     inkscape:window-height="1008"
     inkscape:window-x="1360"
     inkscape:window-y="0"
     inkscape:window-maximized="1"
     inkscape:current-layer="layer1" />
  <defs
     id="defs3942">
    <clipPath
       id="a">
      <path
         d="M 0,0 H 72.1398 V 80 H 0 Z"
         id="path2" />
    </clipPath>
  </defs>
  <g
     inkscape:label="Layer 1"
     inkscape:groupmode="layer"
     id="layer1"
     transform="translate(-302.34195,-89.362274)">
    <g
       clip-path="url(#a)"
       id="g1324"
       transform="matrix(0.26458333,0,0,0.26458333,302.34195,89.362274)"
       style="fill:#e91315;fill-opacity:1">
      <path
         d="M 47.7838,18.8737 H 33.3986 c -0.5255,0 -0.9733,0.4477 -0.9733,0.9733 v 51.8877 c 0,2.3903 -0.07,4.7963 0,7.1867 v 0.1012 c 0,0.5256 0.4478,0.9733 0.9733,0.9733 h 18.8817 c 0.5256,0 0.9733,-0.4477 0.9733,-0.9733 V 60.1409 l -0.9733,0.9733 H 71.162 c 0.5256,0 0.9733,-0.4477 0.9733,-0.9733 V 44.6423 c 0,-0.7903 0.0117,-1.5845 -0.0195,-2.3748 -0.0973,-2.402 -0.5372,-4.8041 -1.3392,-7.0738 -1.5495,-4.3953 -4.3408,-8.304 -8.0199,-11.1655 -3.788,-2.9432 -8.3546,-4.7146 -13.1354,-5.0844 -0.6112,-0.0467 -1.2224,-0.0701 -1.8375,-0.0701 -1.2536,0 -1.2536,1.9427 0,1.9466 4.5394,0.0116 8.9658,1.382 12.711,3.9476 3.5545,2.4371 6.4276,5.9682 8.0394,9.9742 0.8448,2.0984 1.3976,4.3214 1.5767,6.5794 0.0778,0.9655 0.0778,1.931 0.0778,2.9004 v 13.26 c 0,0.8409 -0.0506,1.7013 0,2.5383 v 0.1207 L 71.162,59.1676 H 52.2803 c -0.5255,0 -0.9733,0.4477 -0.9733,0.9733 v 18.8817 l 0.9733,-0.9733 H 33.3986 l 0.9733,0.9733 v -56.758 c 0,-0.7669 0.0506,-1.5494 0,-2.3164 0,-0.035 0,-0.0662 0,-0.1012 l -0.9733,0.9733 h 14.3852 c 1.2535,0 1.2535,-1.9466 0,-1.9466 z"
         id="path1302"
         style="fill:#e91315;fill-opacity:1" />
      <path
         d="m 70.4767,59.4515 c -2.1334,2.1335 -4.2629,4.263 -6.3964,6.3965 -3.3831,3.3831 -6.7662,6.7662 -10.1533,10.1532 -0.7786,0.7787 -1.5572,1.5573 -2.332,2.332 -0.8876,0.8877 0.4906,2.2619 1.3782,1.3782 2.1335,-2.1334 4.263,-4.263 6.3964,-6.3964 3.3832,-3.3831 6.7663,-6.7663 10.1533,-10.1533 0.7787,-0.7786 1.5573,-1.5573 2.332,-2.332 0.8876,-0.8876 -0.4905,-2.2619 -1.3782,-1.3782 z"
         id="path1304"
         style="fill:#e91315;fill-opacity:1" />
      <path
         d="m 52.0237,21.218 c 2.3903,0.4983 4.4965,1.5416 6.0771,3.3636 0.3154,0.366 0.5568,0.693 0.8526,1.1758 0.2764,0.4477 0.5178,0.9148 0.7242,1.3976 0,0 0.035,0.0817 0.0856,0.2219 0.0389,0.1051 0.0818,0.2141 0.1168,0.3231 0.0895,0.2609 0.1752,0.5256 0.2492,0.7903 0.144,0.5139 0.2491,1.0395 0.3309,1.569 0.0233,0.1596 0,-0.0467 0.0233,0.1713 0.0117,0.1284 0.0273,0.2569 0.039,0.3854 0.0233,0.2725 0.0389,0.5411 0.0467,0.8137 0.0156,0.5061 0,1.0122 -0.0351,1.5144 -0.0194,0.2336 -0.0428,0.4633 -0.07,0.6969 -0.0195,0.1596 0.0194,-0.1402 0,0.0155 -0.0078,0.0623 -0.0195,0.1207 -0.0273,0.183 -0.0233,0.1363 -0.0467,0.2725 -0.0701,0.4049 -0.0895,0.4672 -0.2024,0.9343 -0.3387,1.3898 -0.0661,0.2219 -0.1401,0.44 -0.218,0.658 -0.035,0.0934 -0.0701,0.1868 -0.1051,0.2764 -0.0195,0.0506 -0.0428,0.1051 -0.0623,0.1557 -0.0428,0.109 0.0584,-0.1324 -0.0156,0.0351 -0.179,0.3932 -0.3698,0.7747 -0.5917,1.1406 -0.7592,1.2458 -1.7247,2.3904 -2.8303,3.3326 -2.0945,1.783 -4.7613,2.4137 -7.4164,1.7207 -1.3665,-0.3542 -2.6279,-1.0511 -4.0178,-1.3275 -1.4871,-0.292 -2.9743,-0.0117 -4.0021,1.1757 -0.9266,1.0706 -1.3976,2.4098 -1.0901,3.8114 0.2414,1.1017 0.9188,2.0633 1.421,3.0561 0.5022,0.9927 0.7825,2.0906 0.4555,3.2858 -0.2803,1.0239 -0.9733,1.7986 -1.8298,2.0672 -0.1284,0.039 -0.2569,0.0701 -0.3893,0.0974 -0.0506,0.0116 -0.0973,0.0194 -0.1479,0.0272 0.1518,-0.0194 -0.0195,0 -0.0428,0 -0.1363,0.0078 -0.2687,0.0117 -0.4049,0.0078 -0.0662,0 -0.1363,-0.0078 -0.2025,-0.0117 -0.1635,-0.0155 0,0 -0.0973,-0.0155 -0.5879,-0.1168 -0.9733,-0.2765 -1.456,-0.6385 -0.7436,-0.5606 -1.1485,-1.4171 -1.4677,-2.3515 -0.6735,-1.9816 -0.9383,-3.8931 -1.0979,-5.8319 -0.0117,-0.1324 -0.0195,-0.2647 -0.0272,-0.3971 -0.074,-1.2458 -2.0206,-1.2536 -1.9466,0 0.1012,1.7558 0.3582,3.5311 0.7669,5.2441 0.5957,2.4916 1.6974,5.0494 4.4032,5.7852 2.7057,0.7358 5.4815,-1.2108 5.9409,-4.0255 0.2453,-1.4989 -0.0973,-2.8771 -0.7747,-4.2163 -0.2687,-0.5295 -0.5723,-1.0356 -0.841,-1.565 -0.0584,-0.1168 -0.1168,-0.2375 -0.1713,-0.3582 -0.0077,-0.0195 -0.07,-0.1713 -0.0155,-0.035 -0.0234,-0.0584 -0.0467,-0.1207 -0.0662,-0.1791 -0.0389,-0.1207 -0.0779,-0.2375 -0.109,-0.3621 -0.0156,-0.0623 -0.0273,-0.1207 -0.039,-0.183 -0.0389,-0.1791 0,0.0467 -0.0077,-0.0662 -0.0117,-0.144 -0.0117,-0.2842 0,-0.4243 0,-0.0273 0.0272,-0.1869 0,-0.0312 0.0116,-0.0661 0.0272,-0.1323 0.0428,-0.1985 0.074,-0.2998 0.1518,-0.4633 0.3348,-0.7553 0.3465,-0.5606 0.8098,-0.9616 1.4171,-1.0706 0.4672,-0.0817 1.1056,0.0584 1.6663,0.2258 0.7163,0.218 1.4093,0.5061 2.11,0.7631 2.951,1.0784 6.1551,0.9733 8.8803,-0.6696 4.3681,-2.6357 6.7857,-7.6267 6.5404,-12.6488 -0.1129,-2.3087 -0.7397,-4.6251 -2.001,-6.5755 -1.4016,-2.1685 -3.4727,-3.7335 -5.8787,-4.6329 -0.6774,-0.253 -1.3742,-0.4438 -2.0789,-0.5917 -0.5139,-0.109 -1.0511,0.1518 -1.1991,0.6813 -0.1323,0.4827 0.1635,1.0901 0.6813,1.1991 z"
         id="path1306"
         style="fill:#e91315;fill-opacity:1" />
      <path
         d="m 50.8138,31.7295 c -0.0312,-2.8186 -1.7792,-5.2986 -4.4149,-6.2874 -2.6356,-0.9889 -5.6411,-0.1324 -7.3852,1.9816 -1.7909,2.1723 -2.0906,5.3024 -0.6307,7.7356 1.4599,2.4332 4.3058,3.6479 7.0738,3.1223 3.1067,-0.5878 5.3219,-3.4376 5.3609,-6.5521 0.0155,-1.2536 -1.931,-1.2536 -1.9466,0 -0.0234,1.9504 -1.2341,3.8036 -3.1067,4.4576 -1.8726,0.6541 -4.0956,0.0896 -5.3726,-1.5261 -1.2769,-1.6156 -1.3236,-3.7569 -0.2919,-5.4309 1.0316,-1.6741 3.06,-2.5578 4.9715,-2.149 2.2074,0.471 3.7724,2.3982 3.7997,4.6523 0.0156,1.2536 1.9621,1.2536 1.9466,0 z"
         id="path1308"
         style="fill:#e91315;fill-opacity:1" />
      <path
         d="m 44.1248,33.7689 c 1.1266,0 2.04,-0.9133 2.04,-2.04 0,-1.1266 -0.9134,-2.04 -2.04,-2.04 -1.1267,0 -2.04,0.9134 -2.04,2.04 0,1.1267 0.9133,2.04 2.04,2.04 z"
         id="path1310"
         style="fill:#e91315;fill-opacity:1" />
      <path
         d="m 33.3991,16.6574 h 27.6023 c 5.5243,0 8.2379,-3.718 8.7401,-5.828 0.5022,-2.11012 -2.0322,-7.43592 -8.199,-0.802 0,0 3.679,-7.13224 -1.2458,-8.74011 -4.9248,-1.607863 -10.5854,3.31695 -12.8278,8.03932 0,0 0.2686,-5.82802 -4.8042,-4.4187 C 37.592,6.31722 33.3952,16.6613 33.3952,16.6613 Z"
         id="path1312"
         style="fill:#e91315;fill-opacity:1" />
      <path
         d="m 33.3988,17.6312 h 27.3181 c 2.0556,0 4.0878,-0.3893 5.8747,-1.4444 1.787,-1.055 3.5973,-2.9549 4.0878,-5.1 C 71.0298,9.5607 70.4069,7.72704 69.2078,6.72261 67.2457,5.07581 64.7268,6.0491 62.9243,7.43505 62.1768,8.01124 61.4955,8.6536 60.8532,9.3388 l 1.53,1.1796 C 62.7997,9.70864 63.1268,8.83658 63.3798,7.96452 63.8158,6.46177 64.0845,4.70986 63.5511,3.19154 62.8387,1.15154 60.9388,0.201611 58.8794,0.0264204 56.4461,-0.183809 54.009,0.886803 52.0897,2.3039 c -2.293,1.69352 -4.224,3.95153 -5.462,6.52879 l 1.8142,0.49053 C 48.4886,8.29933 48.2822,7.21704 47.8851,6.2749 47.5464,5.46902 47.0209,4.76826 46.2773,4.29329 45.3546,3.70543 44.2373,3.63536 43.1822,3.79887 c -2.184,0.3387 -3.9515,1.82977 -5.3452,3.4571 -1.3938,1.62733 -2.6357,3.58553 -3.6751,5.53993 -0.6229,1.1718 -1.203,2.3709 -1.7052,3.6011 -0.1986,0.4867 0.2141,1.0707 0.6813,1.1991 0.5567,0.1519 1.0005,-0.1907 1.199,-0.6813 0.0818,-0.1985 0.0117,-0.0272 -0.0116,0.0234 0.0778,-0.1752 0.1518,-0.3543 0.2336,-0.5334 0.2725,-0.6112 0.5606,-1.2146 0.8603,-1.8103 0.8838,-1.748 1.8726,-3.4532 3.0406,-5.02601 0.5372,-0.72412 1.2341,-1.52611 1.9504,-2.19183 0.3893,-0.35817 0.5957,-0.53336 0.9928,-0.7981 0.1713,-0.11679 0.3504,-0.2258 0.5333,-0.32702 0.0974,-0.0545 0.1908,-0.10511 0.292,-0.15183 0.0467,-0.02336 0.3465,-0.15183 0.1869,-0.08954 0.4127,-0.16352 0.9811,-0.30756 1.3042,-0.33871 0.218,-0.01946 0.436,-0.01557 0.6579,-0.01168 0.0468,0 0.0935,0.00779 0.1402,0.01168 -0.1791,-0.01946 -0.0273,0 0.0078,0 0.1129,0.02336 0.2219,0.04672 0.3309,0.08176 0.0779,0.02336 0.1557,0.05061 0.2297,0.08176 -0.2064,-0.08565 0.035,0.02335 0.0817,0.0545 0.074,0.04672 0.148,0.08954 0.2219,0.14015 0.0195,0.01168 0.1168,0.08954 0.0195,0.01168 -0.109,-0.08954 0.0506,0.04672 0.0701,0.06618 0.0506,0.05062 0.1051,0.10123 0.1518,0.15184 0.0195,0.02336 0.1908,0.2258 0.109,0.12068 -0.0778,-0.09732 0.0623,0.09344 0.0896,0.13237 0.0506,0.07786 0.1012,0.15962 0.144,0.24527 0.0428,0.08565 0.0857,0.1674 0.1246,0.25305 0.074,0.14794 -0.0506,-0.15572 0.0234,0.0584 0.0584,0.1713 0.1206,0.34259 0.1674,0.51779 0.0467,0.1674 0.0817,0.33481 0.1168,0.50221 0.0116,0.07008 0.0233,0.14015 0.035,0.21023 0.0467,0.26084 -0.0039,-0.1129 0.0039,0.02336 0.0233,0.33091 0.0623,0.66183 0.0506,0.99664 -0.0428,0.93437 1.3937,1.36647 1.8142,0.49054 0.9772,-2.02833 2.3865,-3.82696 4.0917,-5.29077 1.5027,-1.28474 3.4182,-2.41764 5.4348,-2.55779 0.8565,-0.0584 1.9115,0.07397 2.5811,0.40878 0.3855,0.19465 0.4789,0.25305 0.7397,0.51778 0.0623,0.06229 0.1246,0.12848 0.1791,0.19855 -0.1285,-0.15572 0.0428,0.06229 0.0584,0.08176 0.0935,0.14794 0.1791,0.29588 0.2492,0.4516 -0.0896,-0.19465 0.0233,0.0584 0.0311,0.08565 0.0273,0.08176 0.0545,0.16351 0.0779,0.24527 0.0389,0.14015 0.0662,0.2803 0.0934,0.42435 0.0545,0.2842 -0.0156,-0.19855 0.0117,0.08954 0.0078,0.08954 0.0156,0.17519 0.0195,0.26474 0.0116,0.19465 0.0116,0.38931 0.0039,0.58007 -0.0078,0.16351 -0.0195,0.33092 -0.0351,0.49443 0,0.02336 -0.0389,0.31924 -0.0078,0.09733 -0.0116,0.08954 -0.0272,0.17908 -0.0428,0.26473 -0.0584,0.34649 -0.1363,0.68909 -0.2297,1.02779 -0.1674,0.61511 -0.3776,1.21076 -0.619,1.79863 0.1012,-0.24527 0,-0.0039 -0.0428,0.09733 -0.0351,0.07786 -0.0701,0.15572 -0.1051,0.22969 -0.0312,0.07008 -0.0662,0.13626 -0.1013,0.20634 -0.4866,0.94603 0.7397,2.02053 1.53,1.17963 0.5879,-0.6268 1.203,-1.24192 1.8921,-1.7636 0.4594,-0.34649 1.1251,-0.75916 1.5378,-0.92268 0.2375,-0.09343 0.4789,-0.15961 0.728,-0.21801 0.0428,-0.01168 0.0857,-0.01557 0.1285,-0.02336 0.1518,-0.02725 -0.1557,0.01168 -0.0078,0 0.1207,-0.00779 0.2375,-0.01557 0.3582,-0.01557 0.07,0 0.3698,0.03504 0.1129,0 0.0817,0.01168 0.1635,0.02725 0.2452,0.05061 0.0896,0.02336 0.1752,0.0545 0.2648,0.08175 0.1284,0.03894 -0.1635,-0.07786 -0.0429,-0.01946 0.0507,0.02336 0.1013,0.04672 0.148,0.07397 0.0778,0.04282 0.1518,0.08954 0.2258,0.13626 0.035,0.02336 0.074,0.05061 0.1051,0.07397 0,0 -0.1479,-0.12458 -0.0701,-0.05061 0.1363,0.12458 0.2648,0.25305 0.3893,0.3932 0.1013,0.1168 -0.0934,-0.15962 0.0429,0.06229 0.0389,0.06619 0.0817,0.12458 0.1207,0.19077 0.0428,0.07397 0.0856,0.14793 0.1245,0.2258 0.0351,0.07007 0.1441,0.34649 0.0467,0.08954 0.0545,0.14794 0.1091,0.29588 0.148,0.44771 0.0233,0.07786 0.0389,0.15962 0.0584,0.23748 0.0194,0.08565 0.0467,0.36984 0.0194,0.06618 0.0117,0.14016 0.0273,0.28036 0.0273,0.42046 0,0.0623 0,0.1246 -0.0039,0.1869 0,0.035 -0.0078,0.07 -0.0078,0.1012 0,0.1635 0.0662,-0.2063 0.0078,-0.0623 -0.0545,0.1363 -0.074,0.2998 -0.1207,0.4438 -0.0272,0.0779 -0.0545,0.1557 -0.0817,0.2336 -0.0935,0.257 0.0467,-0.0662 -0.0818,0.1869 -0.2024,0.4049 -0.4243,0.7825 -0.6813,1.1523 -0.074,0.1052 -0.1869,0.2492 -0.3582,0.4439 -0.1907,0.218 -0.3971,0.4243 -0.6112,0.6229 -0.4165,0.3815 -0.8059,0.6696 -1.3314,0.9733 -1.4989,0.872 -3.1729,1.1484 -4.8859,1.1484 H 40.6867 c -2.3864,0 -4.7846,-0.0662 -7.1711,0 -0.0389,0 -0.0779,0 -0.1129,0 -1.2536,0 -1.2536,1.9466 0,1.9466 z"
         id="path1314"
         style="fill:#e91315;fill-opacity:1" />
      <path
         d="M 33.6603,49.7659 C 30.9662,48.8432 28.2761,47.9205 25.582,46.994 l -1.1446,-0.3932 0.2336,1.7791 c 2.6941,-1.1679 5.3881,-2.3359 8.0861,-3.5038 0.3776,-0.1635 0.7591,-0.327 1.1367,-0.4944 0.4828,-0.2103 0.5918,-0.9149 0.3504,-1.3315 -0.292,-0.4983 -0.8487,-0.5606 -1.3314,-0.3504 -2.6941,1.168 -5.3881,2.3359 -8.0861,3.5039 -0.3776,0.1635 -0.7591,0.327 -1.1368,0.4944 -0.8331,0.3621 -0.4749,1.5378 0.2336,1.7792 2.6941,0.9226 5.3842,1.8453 8.0783,2.7719 l 1.1446,0.3932 c 1.1874,0.4087 1.6974,-1.4716 0.5178,-1.8765 z"
         id="path1316"
         style="fill:#e91315;fill-opacity:1" />
      <path
         d="M 34.0875,41.0496 C 31.4012,38.8577 28.7111,36.6659 26.0248,34.474 25.6394,34.1587 25.254,33.8434 24.8646,33.528 l -0.689,1.6624 h 9.2228 c 1.2536,0 1.2536,-1.9466 0,-1.9466 h -9.2228 c -0.7826,0 -1.3665,1.1096 -0.6891,1.6624 2.6862,2.1918 5.3764,4.3837 8.0627,6.5755 0.3854,0.3153 0.7708,0.6307 1.1601,0.946 0.4088,0.3309 0.9772,0.3971 1.3782,0 0.3426,-0.3426 0.4088,-1.0433 0,-1.3781 z"
         id="path1318"
         style="fill:#e91315;fill-opacity:1" />
      <path
         d="m 52.2811,20.2791 c 10.3285,2.1023 10.7295,13.3535 7.4164,18.3795 -2.912,4.4187 -6.7312,6.4315 -11.2511,5.2246 -2.5851,-0.6891 -5.4854,-2.8381 -7.3658,0.1129 -1.9777,3.1028 2.0439,4.8119 1.5417,8.526 -0.5023,3.714 -4.3292,4.7146 -6.7313,2.3125 -2.0984,-2.0984 -2.4877,-8.9192 -2.4877,-8.9192 V 19.847 L 52.285,20.2791 Z M 49.2484,31.725 c 0,-2.8304 -2.2931,-5.1234 -5.1234,-5.1234 -2.8303,0 -5.1234,2.293 -5.1234,5.1234 0,2.8303 2.2931,5.1233 5.1234,5.1233 2.8303,0 5.1234,-2.293 5.1234,-5.1233 z"
         id="path1320"
         style="fill:#e91315;fill-opacity:1" />
      <path
         clip-rule="evenodd"
         d="m 25.8156,41.656 c -0.019,0.0118 -0.0379,0.0207 -0.0565,0.0269 l -0.0556,0.0286 c -0.7129,0.3654 -1.4029,0.7191 -2.107,1.1786 -0.4903,0.32 -0.9276,0.7255 -1.3617,1.1281 -0.2208,0.2048 -0.4409,0.4088 -0.6666,0.6005 -0.9733,0.8214 -2.0206,1.5689 -3.1768,2.1061 -1.3276,0.619 -2.7213,1.0006 -4.2747,0.95 C 12.5634,47.6241 11.0373,47.1842 9.60458,46.6158 8.37435,46.1253 7.18695,45.5335 6.04626,44.86 L 6.03155,44.8515 C 5.84876,44.745 5.65397,44.6316 5.68809,44.389 c 0.02725,-0.1869 0.15962,-0.2881 0.3426,-0.3076 0.11721,-0.0125 0.2504,0.023 0.3791,0.0573 0.0722,0.0192 0.143,0.038 0.20876,0.0478 0.2258,0.0351 0.4516,0.0545 0.67741,0.0545 0.34648,0 0.68908,-0.0428 1.02389,-0.1362 C 8.95054,43.9257 10.4299,43.112 10.0679,42.2244 9.88489,41.7689 9.25809,41.5392 8.83764,41.4029 8.04344,41.146 7.20252,41.0525 6.3655,41.0214 5.52847,40.9903 4.74206,40.9552 3.9284,40.7333 3.18091,40.5348 2.46069,40.2428 1.76771,39.9119 1.72887,39.8933 1.68977,39.8747 1.65046,39.856 l -8.2e-4,-4e-4 C 1.16906,39.627 0.657946,39.3839 0.22992,39.0709 0.0703017,38.9541 -0.0659579,38.8023 0.0235842,38.5882 0.109172,38.3864 0.31716,38.3575 0.515641,38.3299 0.569953,38.3223 0.623552,38.3149 0.673737,38.304 2.36336,37.9419 3.73374,36.5131 4.73817,35.1895 4.90685,34.9678 5.06106,34.7342 5.21527,34.5005 5.49171,34.0817 5.76815,33.6629 6.12802,33.313 6.58741,32.8653 7.14412,32.5227 7.73199,32.2735 8.2342,32.0594 8.75588,31.9115 9.29313,31.818 9.33789,31.81 9.38511,31.8003 9.43367,31.7903 9.55157,31.7661 9.67737,31.7402 9.79475,31.7324 9.71708,31.6843 9.63868,31.607 9.56278,31.5321 9.50046,31.4707 9.43982,31.4109 9.38268,31.3703 9.07512,31.1562 8.7442,30.9771 8.4055,30.8253 8.39183,30.8192 8.37807,30.8131 8.3643,30.8071 8.19379,30.7322 8.02164,30.6566 7.99283,30.4476 7.9293,29.9528 8.87651,29.8313 9.37459,29.7673 c 0.08187,-0.0105 0.15163,-0.0194 0.20274,-0.0282 2.60837,-0.436 5.13897,0.3037 7.20617,1.9271 0.8993,0.7047 1.6896,1.5417 2.3982,2.441 0.3054,0.39 0.5777,0.8052 0.8499,1.2202 0.3038,0.4632 0.6074,0.926 0.9565,1.3532 0.9889,1.2068 2.3515,2.0828 3.7218,2.7952 0.1177,0.0603 0.2546,0.1181 0.3977,0.1785 0.4205,0.1774 0.8939,0.3772 1.0856,0.7286 0.2433,0.446 0.0713,0.9443 -0.3143,1.224 -0.0172,0.0179 -0.0386,0.034 -0.0646,0.0477 z m -12.0415,0.0039 c -0.1129,-0.1597 0.0117,-0.3738 0.2064,-0.3582 2.5617,0.2219 2.1801,-1.7714 0.9616,-2.6629 -0.9071,-0.6618 -2.4371,-0.7825 -3.2586,-0.7358 -0.2413,0.0117 -0.327,-0.3192 -0.109,-0.4283 2.0673,-1.0511 5.3025,-1.1017 7.3697,0.5529 2.3826,1.9076 2.3826,3.8152 -0.9538,4.7691 -2.4605,0.7046 -3.7218,-0.4711 -4.2163,-1.1368 z"
         fill-rule="evenodd"
         id="path1322"
         style="fill:#e91315;fill-opacity:1" />
    </g>
  </g>
</svg>
