<svg width="127" height="34" fill="none" xmlns="http://www.w3.org/2000/svg">
  <rect x="9" width="16.857" height="17" rx="8.429" fill="#FFCDC4"></rect>
  <path d="M9 17h16.857v17H9V17Z" fill="#FB5232"></path>
  <path fill="#EBFFBF" d="M76.429 0h16.857v17H76.429zM76.429 17h16.857v17H76.429z"></path>
  <path d="m59.572 0 33.714 34H59.572V0Z" fill="#00B86E"></path>
  <path d="M25.857 17c0-9.389 7.547-17 16.857-17v17H25.857Z" fill="#F4CC3E"></path>
  <path d="M42.714 0H59.57c0 9.389-7.547 17-16.857 17V0Z" fill="#FFE9B1"></path>
  <path d="M25.857 17h16.857v17c-9.31 0-16.857-7.611-16.857-17Z" fill="#F4CC3E"></path>
  <path d="M42.714 17c9.31 0 16.857 7.611 16.857 17H42.714V17Z" fill="#FFE9B1"></path>
  <path d="M93.286 17c0-2.232.436-4.443 1.283-6.506a17.012 17.012 0 0 1 3.654-5.515 16.85 16.85 0 0 1 5.469-3.685A16.733 16.733 0 0 1 110.143 0v17H93.286Z" fill="#BED4FF"></path>
  <path d="M127 17c0 2.233-.436 4.443-1.283 6.506a17.013 17.013 0 0 1-3.654 5.515 16.858 16.858 0 0 1-5.469 3.685A16.733 16.733 0 0 1 110.143 34V17H127Z" fill="#5A4CFA"></path>
  <path d="M110.143 0H127l-16.857 17V0Z" fill="#BED4FF"></path>
  <path d="M110.143 34H93.286l16.857-17v17Z" fill="#5A4CFA"></path>
</svg> 