<?xml version="1.0" encoding="UTF-8" standalone="no"?>
<svg width="180" height="45" viewBox="0 0 180 45" fill="none" xmlns="http://www.w3.org/2000/svg">
  <!-- Blue triangle logo part -->
  <path d="M43.4917 5.14258V19.9488L0 37.4439L43.4917 5.14258Z" fill="#00C9FF"/>
  <!-- Letter S shape -->
  <path d="M35.3383 4.5V30.0417C35.3383 33.611 33.9063 37.0342 31.3573 39.5581C28.8083 42.0821 25.3511 43.5 21.7463 43.5C18.1415 43.5 14.6843 42.0821 12.1353 39.5581C9.58631 37.0342 8.1543 33.611 8.1543 30.0417V19.2791L16.3081 14.8359V30.0417C16.2318 30.7053 16.2979 31.3774 16.5021 32.014C16.7064 32.6506 17.0441 33.2372 17.4933 33.7355C17.9425 34.2338 18.4929 34.6325 19.1085 34.9055C19.7242 35.1785 20.3911 35.3197 21.0657 35.3197C21.7402 35.3197 22.4072 35.1785 23.0228 34.9055C23.6384 34.6325 24.1889 34.2338 24.638 33.7355C25.0872 33.2372 25.425 32.6506 25.6292 32.014C25.8335 31.3774 25.8996 30.7053 25.8232 30.0417V9.65439L35.3383 4.5Z" fill="#0D67FE"/>
  
  <!-- SPACE ID text -->
  <path d="M84.8689 15.6494H84.4175C82.3653 15.6494 81.9617 15.2904 81.9617 14.376C81.9617 13.4616 82.7826 12.7098 84.308 12.7098C85.5 12.7098 86.5722 13.2 86.5722 14.8231H89.0416C88.8706 12.4592 87.1058 10.6914 84.308 10.6914C81.1067 10.6914 79.5197 12.5608 79.5197 14.376C79.5197 16.4825 81.2845 17.6949 83.5008 17.6949H84.1438C86.196 17.6949 86.8116 18.169 86.8116 19.2934C86.8116 20.2958 85.7787 21.0612 84.2328 21.0612C82.8 21.0612 81.7428 20.2 81.7428 18.8666H79.2734C79.4239 21.2982 81.4419 23.0863 84.1986 23.0863C87.5093 23.0863 89.2331 21.1898 89.2331 19.2934C89.2673 17.1192 87.5367 15.6494 84.8689 15.6494Z" fill="#0D67FE"/>
  <path d="M103.373 10.6914C100.055 10.6914 97.4355 12.9062 97.4355 16.8889C97.4355 20.8715 100.055 23.0863 103.373 23.0863C106.691 23.0863 109.311 20.8512 109.311 16.8889C109.311 12.9266 106.684 10.6914 103.373 10.6914ZM103.373 21.0612C101.437 21.0612 99.8844 19.7065 99.8844 16.8889C99.8844 14.0712 101.437 12.6895 103.373 12.7098C105.309 12.7301 106.855 14.0306 106.855 16.8889C106.855 19.7472 105.309 21.0408 103.373 21.0612Z" fill="#0D67FE"/>
  <path d="M117.315 10.6907C114.5 10.6907 113.252 12.0 113.252 12.0V11.0293H110.885V24.8196H113.252V16.5C113.252 14.5 114.5 12.7362 116.713 12.7362C118.909 12.7362 120.284 14.3821 120.284 16.8475C120.284 19.313 118.868 21.0808 116.72 21.0604H116.713C114.517 21.0604 113.245 19.191 113.245 16.8001V22.2322C113.252 21.7852 113.252 21.4262 113.211 20.9317H113.252C113.674 21.6165 114.273 22.1773 114.987 22.5559C115.702 22.9346 116.505 23.1175 117.315 23.0856C120.215 23.0856 122.787 20.8911 122.787 16.8204C122.787 12.7497 120.222 10.6907 117.315 10.6907Z" fill="#0D67FE"/>
  <path d="M130.825 10.6907C128.0 10.6907 126.775 12.0 126.775 12.0V11.0293H124.408V24.8196H126.775V16.5C126.775 14.5 128.0 12.7362 130.223 12.7362C132.418 12.7362 133.793 14.3821 133.793 16.8475C133.793 19.313 132.364 21.0808 130.223 21.0604C128.027 21.0604 126.754 19.191 126.754 16.8001V22.2322C126.775 21.7852 126.775 21.4262 126.734 20.9317H126.775C127.196 21.6145 127.793 22.1739 128.505 22.5524C129.217 22.931 130.017 23.115 130.825 23.0856C133.725 23.0856 136.263 20.8911 136.263 16.8204C136.263 12.7497 133.732 10.6907 130.825 10.6907Z" fill="#0D67FE"/>
  <path d="M148.439 20.7022C148.117 20.7022 147.967 20.5057 147.967 20.1265V14.9721C147.967 12.4998 146.763 10.6914 143.213 10.6914C139.792 10.6914 138.199 12.3915 138.028 14.8231H140.394C140.545 13.4684 141.598 12.7098 143.213 12.7098C144.581 12.7098 145.538 13.3126 145.538 14.2473C145.538 15.0127 144.998 15.48 143.233 15.48H142.289C139.471 15.48 137.576 16.6112 137.576 19.1918C137.576 21.901 139.574 23.127 141.92 23.127C143.664 23.127 145.149 22.3616 145.73 20.7225C145.792 21.9146 146.592 22.7544 148.097 22.7544H149.465V20.7225L148.439 20.7022ZM145.6 17.3156C145.6 19.9571 144.157 21.1018 142.31 21.1018C140.695 21.1018 140.052 20.1671 140.052 19.2121C140.052 18.2571 140.607 17.5459 142.33 17.5459H142.672C144.328 17.5459 145.361 16.9701 145.58 15.9677L145.6 17.3156Z" fill="#0D67FE"/>
  
  <!-- ID text -->
  <path d="M164.273 7.29102V22.7474H166.64V7.29102H164.273Z" fill="#0D67FE"/>
  <path d="M180 15.8255C180 12.8859 177.633 10.6914 174.404 10.6914C170.984 10.6914 168.576 13.0078 168.576 16.8889C168.576 20.6141 170.916 23.0863 174.404 23.0863C177.264 23.0863 179.398 21.4269 179.877 19.1443H177.298C176.5 20.5 175.5 21.0612 174.391 21.0612C172.626 21.0612 171.333 19.8081 171.052 17.722H179.986L180 15.8255ZM171.107 15.6291C171.5 14.0 173.0 12.7098 174.418 12.7098C175.8 12.7098 177.0 14.0 177.626 15.6291H171.107Z" fill="#0D67FE"/>
</svg> 