<svg xmlns="http://www.w3.org/2000/svg" viewBox="0 0 142.69 200.93"><defs><style>.cls-1,.cls-2{fill:none;stroke-miterlimit:10;stroke-width:3px;}.cls-1{stroke:#7f7f7f;}.cls-2{stroke:#000;}</style></defs><g id="Layer_2" data-name="Layer 2"><g id="Layer_1-2" data-name="Layer 1"><path class="cls-1" d="M84.49,131.18c-6.43,13.38-3.22,32.69-3.22,32.69-29.46-23.54-17.5-56.63-17.5-56.63C67.7,123.93,84.49,131.18,84.49,131.18Zm-48.18,9.49s1.22,17.37,25,14.62C61.36,155.29,46,150.73,36.31,140.67Z"/><path class="cls-2" d="M92.25,157.43a66.35,66.35,0,0,1,11.33-36.81c-2.46,1.68-6.51,1.67-6.51,1.67-19.18,0-25.36-21.33-25.36-29.64a97.51,97.51,0,0,1,1.75-16.9c-13.55,11.94-19.71,33-19.71,45.88s5.09,20,5.09,20c-28.17-.27-32.59-23.07-32.59-23.07-2,12.74,2.29,29.37,2.29,29.37a48.07,48.07,0,0,1-13.68-33.13C14.86,94.26,30,75.08,30,75.08c-1.35,15.56,9.12,29,9.12,29,0-8.72,7.23-34.61,35.67-54.46S100.69,4.53,100.69,4.53c8.32,9.52,13.55,26.42,6,40.9S98,77.36,98,77.36s-2,16.77,11.27,16.77c20.27,0,15.17-37.29,15.17-37.29,16.62,11.66,16.69,34.81,16.69,34.81s2.21,15.28-20.52,43.25c-24.83,30.55-19.12,58.55-19.12,58.55S92.25,179.16,92.25,157.43ZM3.51,127.56s-2,8.75-2,14.78,2.11,33.6,41.66,36.82c0,0,36.91,2.72,51.23,17.3,0,0-4-24.13-28.44-29.51s-30.58-.1-51.09-18.82C14.86,148.13,6.06,139.73,3.51,127.56Z"/></g></g></svg>