<?xml version="1.0" encoding="UTF-8" standalone="no"?>
<!-- Created with Inkscape (http://www.inkscape.org/) -->

<svg
   width="32.191818mm"
   height="37.752804mm"
   viewBox="0 0 32.191818 37.752804"
   version="1.1"
   id="svg847"
   inkscape:version="1.2.2 (b0a8486541, 2022-12-01)"
   sodipodi:docname="brave.svg"
   xmlns:inkscape="http://www.inkscape.org/namespaces/inkscape"
   xmlns:sodipodi="http://sodipodi.sourceforge.net/DTD/sodipodi-0.dtd"
   xmlns="http://www.w3.org/2000/svg"
   xmlns:svg="http://www.w3.org/2000/svg">
  <sodipodi:namedview
     id="namedview849"
     pagecolor="#ffffff"
     bordercolor="#000000"
     borderopacity="0.25"
     inkscape:showpageshadow="2"
     inkscape:pageopacity="0.0"
     inkscape:pagecheckerboard="0"
     inkscape:deskcolor="#d1d1d1"
     inkscape:document-units="mm"
     showgrid="false"
     inkscape:zoom="0.76969697"
     inkscape:cx="-115.62992"
     inkscape:cy="-80.551181"
     inkscape:window-width="1920"
     inkscape:window-height="1008"
     inkscape:window-x="1360"
     inkscape:window-y="0"
     inkscape:window-maximized="1"
     inkscape:current-layer="layer1" />
  <defs
     id="defs844">
    <linearGradient
       id="linear-gradient"
       x1="168.37"
       y1="199.89999"
       x2="289.95999"
       y2="199.89999"
       gradientUnits="userSpaceOnUse"
       gradientTransform="matrix(0.26458333,0,0,0.26458333,123.96051,193.23642)">
      <stop
         offset="0"
         stop-color="#f1562b"
         id="stop4" />
      <stop
         offset="0.3"
         stop-color="#f1542b"
         id="stop6" />
      <stop
         offset="0.41"
         stop-color="#f04d2a"
         id="stop8" />
      <stop
         offset="0.49"
         stop-color="#ef4229"
         id="stop10" />
      <stop
         offset="0.5"
         stop-color="#ef4029"
         id="stop12" />
      <stop
         offset="0.56"
         stop-color="#e83e28"
         id="stop14" />
      <stop
         offset="0.67"
         stop-color="#e13c26"
         id="stop16" />
      <stop
         offset="1"
         stop-color="#df3c26"
         id="stop18" />
    </linearGradient>
  </defs>
  <g
     inkscape:label="Layer 1"
     inkscape:groupmode="layer"
     id="layer1"
     transform="translate(-168.49786,-227.24866)">
    <path
       class="cls-2"
       d="m 200.68968,239.46177 -1.16417,-3.16177 0.80962,-1.81504 a 0.62177083,0.62177083 0 0 0 -0.127,-0.69056 l -2.20133,-2.22515 a 3.5533541,3.5533541 0 0 0 -3.70417,-0.85989 l -0.61648,0.21431 -3.36285,-3.64331 -5.70442,-0.0317 h -0.037 l -5.74146,0.045 -3.3602,3.67241 -0.59796,-0.21166 a 3.5639375,3.5639375 0 0 0 -3.72798,0.86783 l -2.24102,2.26748 a 0.49477083,0.49477083 0 0 0 -0.10054,0.55033 l 0.84402,1.88384 -1.15888,3.15912 0.74877,2.84956 3.41577,12.98575 a 6.6145832,6.6145832 0 0 0 2.55852,3.70417 c 0,0 4.14603,2.92364 8.23648,5.58006 a 1.825625,1.825625 0 0 0 2.27807,0 c 4.59581,-3.01096 8.23118,-5.59064 8.23118,-5.59064 a 6.6145832,6.6145832 0 0 0 2.55588,-3.70417 l 3.39725,-12.99104 z"
       id="path35"
       style="fill:url(#linear-gradient);stroke-width:0.264583" />
    <path
       class="cls-1"
       d="m 185.53434,250.651 a 4.8736249,4.8736249 0 0 0 -0.67204,-0.24341 h -0.40481 a 4.8736249,4.8736249 0 0 0 -0.67204,0.24341 l -1.01865,0.42334 c -0.32279,0.13493 -0.84137,0.3757 -1.15094,0.52916 l -1.87325,0.97632 a 0.3571875,0.3571875 0 0 0 -0.045,0.66145 l 1.62719,1.1483 c 0.28575,0.20108 0.73554,0.55562 1.00013,0.79375 l 0.45773,0.39422 c 0.26458,0.22755 0.69585,0.6059 0.95779,0.83873 l 0.43391,0.38365 a 0.74612499,0.74612499 0 0 0 0.95515,0 l 0.45508,-0.39688 0.9578,-0.83608 0.46037,-0.40217 c 0.26458,-0.23018 0.71173,-0.58472 0.99748,-0.79375 l 1.62719,-1.16416 a 0.35454166,0.35454166 0 0 0 -0.0503,-0.65881 l -1.87061,-0.94986 c -0.31221,-0.15875 -0.83079,-0.39687 -1.15623,-0.52917 z"
       id="path37"
       style="fill:#ffffff;stroke-width:0.264583" />
    <path
       class="cls-1"
       d="m 197.07018,240.16821 0.0529,-0.16933 a 4.4555833,4.4555833 0 0 0 -0.0423,-0.67734 5.7070624,5.7070624 0 0 0 -0.60325,-1.1377 l -1.05833,-1.55311 c -0.1958,-0.29104 -0.52917,-0.75141 -0.75407,-1.02394 l -1.41816,-1.77535 a 4.9582916,4.9582916 0 0 0 -0.42069,-0.49212 h -0.0291 c 0,0 -0.28575,0.0503 -0.6297,0.11641 l -2.16694,0.41804 -0.94985,0.18257 A 2.4685625,2.4685625 0 0 1 188.122,233.9214 l -1.71186,-0.55298 c -0.33337,-0.10848 -0.8837,-0.26458 -1.22502,-0.33867 a 5.1196874,5.1196874 0 0 0 -1.08214,0 c -0.34132,0.0794 -0.89165,0.23284 -1.22502,0.34132 l -1.71186,0.55562 a 2.4685625,2.4685625 0 0 1 -0.92869,0.13494 l -0.94985,-0.17992 -2.16958,-0.41539 c -0.34396,-0.0661 -0.62707,-0.11907 -0.62971,-0.11642 h -0.0291 a 4.9582916,4.9582916 0 0 0 -0.42068,0.49212 l -1.41552,1.77536 c -0.21696,0.26458 -0.55827,0.73554 -0.75407,1.02394 l -1.05833,1.5531 a 8.3211457,8.3211457 0 0 0 -0.50006,0.83344 3.7888333,3.7888333 0 0 0 -0.14288,0.98425 l 0.0529,0.16933 a 2.5108958,2.5108958 0 0 0 0.0979,0.32015 c 0.2196,0.26458 0.59531,0.70379 0.83608,0.96043 l 3.70417,3.937 a 1.0583333,1.0583333 0 0 1 0.18785,1.05834 l -0.6059,1.43668 a 1.8653125,1.8653125 0 0 0 -0.0291,1.18269 l 0.12171,0.33338 a 3.2146875,3.2146875 0 0 0 0.98689,1.38377 l 0.58209,0.4736 a 1.1006667,1.1006667 0 0 0 1.05833,0.127 l 2.06904,-0.98689 a 5.2599166,5.2599166 0 0 0 1.05834,-0.70115 l 1.65629,-1.4949 a 0.66410416,0.66410416 0 0 0 0.0344,-0.9525 l -3.73856,-2.51883 a 0.72495832,0.72495832 0 0 1 -0.22754,-0.9181 l 1.44992,-2.72521 a 1.4155208,1.4155208 0 0 0 0.0714,-1.08215 1.6536458,1.6536458 0 0 0 -0.82285,-0.74612 l -4.54554,-1.71715 c -0.32809,-0.12435 -0.30957,-0.26458 0.037,-0.28575 l 2.66964,-0.26458 a 4.1195624,4.1195624 0 0 1 1.24619,0.11112 l 2.32304,0.64823 a 0.71172916,0.71172916 0 0 1 0.49742,0.79375 l -0.91281,4.98475 a 2.5770416,2.5770416 0 0 0 -0.045,0.84138 c 0.037,0.11906 0.34925,0.26458 0.69056,0.34925 l 1.41552,0.30162 a 3.4395833,3.4395833 0 0 0 1.24354,0 l 1.27265,-0.28839 c 0.34131,-0.0767 0.65087,-0.23813 0.69056,-0.35719 a 2.5743958,2.5743958 0 0 0 -0.0476,-0.84138 l -0.91811,-4.98475 a 0.71172916,0.71172916 0 0 1 0.49742,-0.79375 l 2.32304,-0.65087 a 4.1169166,4.1169166 0 0 1 1.24619,-0.11113 l 2.66964,0.24871 c 0.34925,0.0317 0.36513,0.1614 0.0397,0.28575 l -4.54289,1.72244 a 1.6536458,1.6536458 0 0 0 -0.82286,0.74613 1.4181666,1.4181666 0 0 0 0.0714,1.08214 l 1.45256,2.72521 a 0.72495832,0.72495832 0 0 1 -0.22754,0.9181 l -3.73592,2.52413 a 0.66410416,0.66410416 0 0 0 0.0344,0.9525 l 1.65894,1.49489 a 5.2599166,5.2599166 0 0 0 1.05833,0.6985 l 2.06904,0.98425 a 1.1006667,1.1006667 0 0 0 1.05833,-0.12964 l 0.58209,-0.47625 a 3.2120416,3.2120416 0 0 0 0.98689,-1.38642 l 0.12171,-0.33337 a 1.8653125,1.8653125 0 0 0 -0.0291,-1.18269 l -0.60854,-1.43669 a 1.0583333,1.0583333 0 0 1 0.18785,-1.05833 l 3.70417,-3.94229 c 0.24077,-0.26459 0.61383,-0.68792 0.83343,-0.96044 a 2.5108958,2.5108958 0 0 0 0.11378,-0.31221 z"
       id="path39"
       style="fill:#ffffff;stroke-width:0.264583" />
  </g>
</svg>
