<?xml version="1.0" encoding="UTF-8" standalone="no"?>
<!-- Created with Inkscape (http://www.inkscape.org/) -->

<svg
   width="110.09284mm"
   height="109.71591mm"
   viewBox="0 0 110.09284 109.71591"
   version="1.1"
   id="svg939"
   inkscape:version="1.2.2 (b0a8486541, 2022-12-01)"
   sodipodi:docname="actriveDirectory.svg"
   xmlns:inkscape="http://www.inkscape.org/namespaces/inkscape"
   xmlns:sodipodi="http://sodipodi.sourceforge.net/DTD/sodipodi-0.dtd"
   xmlns="http://www.w3.org/2000/svg"
   xmlns:svg="http://www.w3.org/2000/svg">
  <sodipodi:namedview
     id="namedview941"
     pagecolor="#ffffff"
     bordercolor="#000000"
     borderopacity="0.25"
     inkscape:showpageshadow="2"
     inkscape:pageopacity="0.0"
     inkscape:pagecheckerboard="0"
     inkscape:deskcolor="#d1d1d1"
     inkscape:document-units="mm"
     showgrid="false"
     inkscape:zoom="0.74653479"
     inkscape:cx="780.9415"
     inkscape:cy="160.74268"
     inkscape:window-width="1920"
     inkscape:window-height="1008"
     inkscape:window-x="1360"
     inkscape:window-y="0"
     inkscape:window-maximized="1"
     inkscape:current-layer="layer1" />
  <defs
     id="defs936" />
  <g
     inkscape:label="Layer 1"
     inkscape:groupmode="layer"
     id="layer1"
     transform="translate(101.82924,-106.04658)">
    <path
       id="path6"
       class="st0"
       d="m 8.124949,189.7099 v 23.08622 c 0,2.7038 -0.8319359,3.25842 -3.3970714,2.84245 -17.1933406,-2.56513 -34.5946656,-4.92229 -51.9266626,-7.34876 -3.11976,-0.41597 -4.229008,-1.52522 -4.229008,-4.92229 0.277312,-12.27106 0.138656,-24.61144 0,-37.02115 0,-2.70379 0.831936,-3.53572 3.535728,-3.53572 17.747965,0.13865 35.218618,0.13865 52.6199426,0.13865 2.8424475,0 3.5357273,1.10925 3.5357273,3.67438 C 7.986293,174.38842 8.124949,182.0145 8.124949,189.7099 Z"
       style="fill:#00aaf2;stroke-width:0.69328" />
    <path
       id="path8"
       class="st0"
       d="m -21.339446,158.51231 c -8.735326,0 -17.470653,-0.13866 -26.205979,0 -2.703792,0 -3.81304,-0.55462 -3.81304,-3.67438 0.138656,-12.54837 0.138656,-24.88875 0,-37.29846 0,-2.42648 0.831936,-3.25842 3.11976,-3.67438 17.886621,-2.56514 35.773242,-5.06095 53.6598624,-7.76474 3.1197595,-0.41597 2.5651356,1.66387 2.5651356,3.39707 0,11.09248 0.138656,22.39294 0,33.48542 0,4.09035 -0.138656,8.1807 0,12.27105 0.138656,2.56514 -0.8319359,3.25842 -3.2584154,3.25842 -8.5966706,-0.13866 -17.3319966,0 -26.0673236,0 z"
       style="fill:#00aaf2;stroke-width:0.69328" />
    <path
       id="path10"
       class="st0"
       d="m -79.158988,163.15729 h 19.550493 c 2.079839,0 2.981103,0.69327 2.981103,2.84244 v 38.54636 c 0,2.2185 -0.970592,2.42648 -2.981103,2.2185 -12.964334,-1.94118 -25.928668,-3.81304 -38.823674,-5.61557 -2.565131,-0.41597 -3.397071,-1.2479 -3.397071,-3.95169 0.13866,-10.26055 0.13866,-20.52109 0,-30.98961 0,-2.56514 0.69328,-3.25842 3.258415,-3.25842 6.586159,0.20799 12.895006,0.20799 19.411837,0.20799 z"
       style="fill:#00aaf2;stroke-width:0.69328" />
    <path
       id="path12"
       class="st0"
       d="m -79.158988,158.51231 h -19.273181 c -2.426481,0 -3.258411,-0.83194 -3.258411,-3.39707 0.13865,-10.12189 0.13865,-20.24377 0,-30.43499 0,-2.42648 0.69328,-3.25841 3.258411,-3.67438 12.964334,-1.66387 25.928668,-3.53573 38.823674,-5.61557 2.981103,-0.41597 3.258415,0.55463 3.258415,2.9811 v 36.88249 c 0,2.7038 -1.109248,3.11976 -3.535727,3.11976 -6.447503,0 -12.964334,0.13866 -19.273181,0.13866 z"
       style="fill:#00aaf2;stroke-width:0.69328" />
  </g>
</svg>
