<?xml version="1.0" encoding="UTF-8" standalone="no"?>
<!-- Created with Inkscape (http://www.inkscape.org/) -->

<svg
   width="31.850542mm"
   height="35.256546mm"
   viewBox="0 0 31.850542 35.256546"
   version="1.1"
   id="svg455"
   inkscape:version="1.1.2 (0a00cf5339, 2022-02-04)"
   sodipodi:docname="colyseus.svg"
   xmlns:inkscape="http://www.inkscape.org/namespaces/inkscape"
   xmlns:sodipodi="http://sodipodi.sourceforge.net/DTD/sodipodi-0.dtd"
   xmlns:xlink="http://www.w3.org/1999/xlink"
   xmlns="http://www.w3.org/2000/svg"
   xmlns:svg="http://www.w3.org/2000/svg">
  <sodipodi:namedview
     id="namedview457"
     pagecolor="#ffffff"
     bordercolor="#666666"
     borderopacity="1.0"
     inkscape:pageshadow="2"
     inkscape:pageopacity="0.0"
     inkscape:pagecheckerboard="0"
     inkscape:document-units="mm"
     showgrid="false"
     inkscape:zoom="0.73940797"
     inkscape:cx="-68.974101"
     inkscape:cy="6.7621668"
     inkscape:window-width="1920"
     inkscape:window-height="1008"
     inkscape:window-x="0"
     inkscape:window-y="0"
     inkscape:window-maximized="1"
     inkscape:current-layer="layer1" />
  <defs
     id="defs452">
    <linearGradient
       id="linear-gradient"
       x1="13.09"
       y1="4.21"
       x2="132.62"
       y2="99.019997"
       gradientUnits="userSpaceOnUse">
      <stop
         offset="0"
         stop-color="#a32fe0"
         id="stop141" />
      <stop
         offset="1"
         stop-color="#5945e3"
         id="stop143" />
    </linearGradient>
    <linearGradient
       id="linear-gradient-2"
       x1="16.799999"
       y1="-0.46000001"
       x2="136.33"
       y2="94.339996"
       xlink:href="#linear-gradient" />
    <linearGradient
       id="linear-gradient-3"
       x1="-14.54"
       y1="39.049999"
       x2="104.99"
       y2="133.85001"
       xlink:href="#linear-gradient" />
  </defs>
  <g
     inkscape:label="Layer 1"
     inkscape:groupmode="layer"
     id="layer1"
     transform="translate(-123.27111,-146.61631)">
    <g
       id="g172"
       transform="matrix(0.26458333,0,0,0.26458333,123.27111,146.61674)"
       style="fill:#703ee2;fill-opacity:1">
      <path
         class="cls-4"
         d="m 19.8,48.53 c 3.4,2.77 7.52,5.48 12.5,7.91 3.66,-7.06 17.75,-24.8 57.44,-19.62 L 86.19,23.19 C 36.89,18.96 22.72,42.18 19.79,48.53 Z"
         id="path166"
         style="fill:#703ee2;fill-opacity:1" />
      <path
         class="cls-1"
         d="M 10.96,41.3 C 16.48,31.27 35.37,10.72 82.4,15.25 L 76.37,0.39 c 0,0 -49.31,-5.72 -74.18,26.56 0.89,2.6 3.28,8.21 8.77,14.35 z"
         id="path168"
         style="fill:#703ee2;fill-opacity:1" />
      <path
         class="cls-3"
         d="M 100.37,71.71 C 92.46,72.54 85.1,72.93 78.3,72.93 30.31,72.92 9.06,54.07 0,40.61 v 62.04 c 0,0 3.88,40.13 120.38,28.48 l -20,-59.42 z"
         id="path170"
         style="fill:#703ee2;fill-opacity:1" />
    </g>
  </g>
</svg>
