<svg width="907" height="900" viewBox="0 0 907 900" fill="none" xmlns="http://www.w3.org/2000/svg">
<path d="M533.077 609.231C533.077 570.996 564.072 540 602.307 540H630C668.235 540 699.231 570.996 699.231 609.231V636.923C699.231 675.158 668.235 706.154 630 706.154H602.307C564.072 706.154 533.077 675.158 533.077 636.923V609.231Z" fill="#0DC28D"/>
<path d="M602.307 290.769C564.072 290.769 533.077 321.765 533.077 360V387.692C533.077 425.927 564.072 456.923 602.307 456.923H630C668.235 456.923 699.231 425.927 699.231 387.692V360C699.231 321.765 668.235 290.769 630 290.769H602.307Z" fill="#0DC28D"/>
<path fill-rule="evenodd" clip-rule="evenodd" d="M283.846 0C130.906 0 6.92285 123.983 6.92285 276.923V623.077C6.92285 776.017 130.906 900 283.846 900H630C782.94 900 906.923 776.017 906.923 623.077V276.923C906.923 123.983 782.94 0 630 0H283.846ZM630 110.769H283.846C192.082 110.769 117.692 185.159 117.692 276.923V623.077C117.692 714.841 192.082 789.231 283.846 789.231H630C721.764 789.231 796.154 714.841 796.154 623.077V276.923C796.154 185.159 721.764 110.769 630 110.769Z" fill="#0DC28D"/>
</svg>
